<svg width="636" height="33" viewBox="0 0 636 33" fill="none" xmlns="http://www.w3.org/2000/svg">
<g clip-path="url(#clip0_8_2)">
<path d="M635.01 0H0.0100098V33H635.01V0Z" fill="#C71F84"/>
<path d="M124.01 27.28H120.5C120.317 26.9243 120.031 26.6317 119.68 26.44L115.92 25.23C115.793 25.1572 115.689 25.0501 115.62 24.921C115.551 24.7919 115.52 24.646 115.53 24.5C115.525 24.314 115.572 24.1303 115.666 23.9696C115.759 23.8088 115.896 23.6774 116.06 23.59L116.6 23.53C118.77 24.05 120.84 24.53 122.97 23.64C123.5 23.38 123.64 23.37 123.75 23.41C123.86 23.45 124.02 23.61 124.27 24.24C124.429 25.2595 124.34 26.3024 124.01 27.28V27.28ZM27.3 24.5L27.01 24.23C26.8753 24.2414 26.7449 24.2833 26.6288 24.3526C26.5127 24.422 26.414 24.5168 26.34 24.63C26.1351 24.8624 25.9964 25.1455 25.9384 25.4499C25.8803 25.7542 25.9051 26.0685 26.01 26.36L26.52 27.28H29.22C28.6825 26.2865 28.0388 25.3544 27.3 24.5V24.5ZM162.01 27.28C161.545 26.0358 160.775 24.9285 159.77 24.06C157.55 22.34 151.03 20.06 141.88 17.87C141.584 17.8454 141.286 17.8899 141.01 18C140.868 18.0722 140.749 18.1825 140.666 18.3184C140.583 18.4544 140.539 18.6107 140.54 18.77C140.61 19.0187 140.746 19.2435 140.935 19.4198C141.124 19.5962 141.357 19.7173 141.61 19.77C146.908 20.728 152.039 22.4528 156.84 24.89C157.268 25.0877 157.634 25.3994 157.896 25.791C158.159 26.1825 158.309 26.6389 158.33 27.11C158.33 27.16 158.33 27.22 158.33 27.27L162.01 27.28ZM165.55 24.82L164.73 27.28H166.17C166.33 26.54 166.47 25.77 166.6 24.96C166.6 24.41 166.47 24.11 166.4 24.1C166.33 24.09 165.85 24.3 165.57 24.82H165.55ZM138.55 22.27C138.666 22.6263 138.856 22.954 139.107 23.2316C139.359 23.5091 139.667 23.7301 140.01 23.88L152.67 27.28H154.96L155.1 27.1L154.98 26.77C149.826 24.2555 144.246 22.7292 138.53 22.27H138.55ZM72.06 1.70999C74.06 1.11999 76.58 0.589988 77.85 1.55999C78.4105 1.65539 78.9868 1.55287 79.48 1.26999C80.24 0.889988 80.48 0.439988 80.48 0.359988L80.18 0.239988C80.03 0.179988 79.87 0.119988 79.7 0.0699878H73.86C73.0643 0.239098 72.2848 0.476648 71.53 0.779988L72.06 1.70999ZM86.01 2.99999C85.78 3.22999 85.78 3.36999 85.78 3.39999C85.78 3.42999 85.94 3.79999 87.01 4.23999C87.3781 4.39168 87.7863 4.41631 88.17 4.30999C88.47 4.18999 88.38 3.80999 88.27 3.58999C88.01 2.99999 87.18 2.57999 86.01 2.99999ZM83.64 2.35999C85.23 1.55999 87.13 0.609988 89.95 2.62999C90.2026 2.75888 90.4147 2.955 90.5629 3.19673C90.7111 3.43847 90.7897 3.71643 90.79 3.99999C90.79 4.53999 90.59 4.79999 89.79 5.20999L90 5.69999C90.5173 5.77534 91.0453 5.69892 91.52 5.47999C91.7711 5.35278 91.9903 5.17083 92.1617 4.94756C92.333 4.72429 92.4521 4.4654 92.51 4.18999C92.5287 3.8062 92.4539 3.42362 92.2918 3.07521C92.1298 2.72679 91.8855 2.42299 91.58 2.18999C88.26 -0.280012 85.66 0.189988 82.8 1.60999L82.42 1.78999C82.1 2.07999 82.07 2.32999 82.11 2.39999C82.15 2.46999 82.66 2.83999 83.65 2.36999L83.64 2.35999ZM73.26 3.78999L74.26 5.47999C79.38 5.36999 83.69 6.68999 87.19 10.48C88.86 13.19 90.5 14.69 91.99 14.92H92.34L92.01 14.31C88.22 7.30999 83.23 3.83999 77.08 3.91999C75.8119 3.77861 74.5348 3.73515 73.26 3.78999V3.78999ZM96.58 11.89C96.11 10.89 95.58 10.55 95.28 10.5C94.8869 10.4962 94.5024 10.615 94.18 10.84C93.81 11.26 93.61 11.58 93.65 11.78C93.69 11.98 94.01 12.29 94.44 12.48C95.0217 12.6462 95.6383 12.6462 96.22 12.48C96.331 12.4274 96.4242 12.3436 96.4881 12.2388C96.5521 12.1339 96.584 12.0127 96.58 11.89V11.89ZM170.43 22.82C170.28 22.82 169.87 23.03 169.59 23.54L168.34 27.28H169.93C170.2 26.16 170.43 24.96 170.64 23.69C170.67 23.13 170.51 22.84 170.43 22.82ZM89.78 20.71C86.95 18.01 81.55 14.86 79.29 14.27L79.75 15.07C83.0915 17.056 86.2357 19.3564 89.14 21.94C90.25 22.69 90.12 21 89.78 20.71ZM175.63 18.57C175.459 18.5841 175.293 18.6374 175.146 18.7258C174.998 18.8143 174.873 18.9355 174.78 19.08C174.5 19.55 174.23 20.08 173.98 20.51L171.72 27.28H173.5C174.127 24.6074 174.966 21.9891 176.01 19.45C176.09 19.16 176.08 18.93 175.63 18.57ZM4.01 23.43L3.53 23H3.25C2.73826 23.7581 2.50179 24.6687 2.58 25.58C2.68 26.15 2.77 26.7 2.84 27.24H5.15C4.85 26.06 4.48 24.78 4.01 23.43ZM0.67 25.17C0.533812 25.197 0.409854 25.2669 0.31628 25.3695C0.222706 25.4721 0.164434 25.6019 0.15 25.74C0.1 26.11 0.05 26.45 0 26.8V27.28H1.09C1.09 26.92 1.09 26.55 1.17 26.19C1.11 25.43 0.84 25.18 0.67 25.17ZM2.33 5.32999L0.62 16.92C0.62 17.34 0.86 17.38 0.99 17.39C1.12 17.4 1.45 17.29 1.59 16.86C2.79 13.94 3.35 10.16 3.31 5.31999C3.24 4.78999 3.06 4.52999 2.98 4.51999C2.9 4.50999 2.5 4.79999 2.33 5.32999ZM12.14 20.18C12.0349 20.0231 11.8945 19.8929 11.73 19.8C11.68 19.8 11.53 19.98 11.39 20.47C11.2152 21.6521 11.3075 22.8583 11.66 24L11.72 24.12C12.0287 25.1296 12.1573 26.1858 12.1 27.24H13.78C14.0807 24.767 13.5 22.2672 12.14 20.18V20.18ZM8.34 25.4C8.34 24.99 9.11 24.52 9.25 24.8C9.46 25.26 9.73 25.65 9.92 25.57C10.61 25.76 9.92 22.67 9.92 22.67C9.79762 22.5235 9.64471 22.4056 9.47198 22.3244C9.29925 22.2432 9.11086 22.2008 8.92 22.2C8.4227 22.1833 7.92969 22.297 7.49 22.53C6.85 22.67 6.43 23 6.59 24.08C6.59936 25.1562 6.72001 26.2286 6.95 27.28H8.65C8.46737 26.669 8.3632 26.0373 8.34 25.4V25.4ZM133.66 2.50999C133.673 2.8977 133.574 3.28091 133.373 3.61293C133.172 3.94496 132.879 4.21146 132.53 4.37999C132.025 4.60742 131.472 4.70702 130.92 4.66999L120.08 4.17999H119.84L119.77 4.25999C120.382 5.25512 121.358 5.97256 122.49 6.25999C125.178 6.78272 127.903 7.09368 130.64 7.18999H131.38C132.725 7.33359 134.086 7.20434 135.38 6.80999C135.809 6.58885 136.159 6.23927 136.38 5.80999C136.62 4.84304 136.666 3.83827 136.517 2.85327C136.368 1.86828 136.026 0.922439 135.51 0.0699878H132.56C133.223 0.71411 133.617 1.58647 133.66 2.50999V2.50999ZM140.66 26.78L139.66 26.5C139.585 26.5912 139.531 26.6971 139.5 26.8108C139.469 26.9245 139.462 27.0435 139.48 27.16C139.48 27.16 139.48 27.24 139.48 27.28H142.36L140.66 26.78ZM124.53 8.85999H124.15L124.01 9.11999C124.073 9.41796 124.208 9.69597 124.403 9.92961C124.598 10.1633 124.848 10.3454 125.13 10.46C127.748 10.8067 130.326 11.4028 132.83 12.24C133.36 12.4333 133.828 12.7688 134.18 13.2097C134.533 13.6506 134.758 14.18 134.83 14.74C134.877 15.081 134.818 15.4283 134.661 15.7344C134.503 16.0405 134.255 16.2904 133.95 16.45C133.444 16.6755 132.879 16.7282 132.34 16.6L126.94 16.22C126.84 16.304 126.765 16.4135 126.723 16.5368C126.681 16.6601 126.673 16.7925 126.7 16.92C126.73 17.224 126.847 17.513 127.036 17.7524C127.226 17.9919 127.481 18.1715 127.77 18.27L134.77 19.27C135.408 19.3552 136.057 19.2689 136.65 19.02C137.079 18.7989 137.429 18.4493 137.65 18.02C138.205 16.7295 138.396 15.3112 138.2 13.92C138.038 12.9107 137.531 11.9888 136.765 11.3121C135.999 10.6354 135.022 10.2458 134 10.21L124.53 8.85999ZM130.86 14.72C131.027 14.6394 131.165 14.5079 131.253 14.3445C131.341 14.1811 131.375 13.994 131.35 13.81C131.322 13.6283 131.24 13.4591 131.115 13.3238C130.991 13.1886 130.829 13.0933 130.65 13.05L126.31 12.87L126.02 13.39L126.4 14.02L130.54 14.83L130.86 14.72ZM138.75 8.59999C138.738 8.83246 138.779 9.06464 138.869 9.27931C138.959 9.49398 139.096 9.68561 139.27 9.83999C147.253 12.6688 155.401 15.0065 163.67 16.84L164.14 16.78L164.37 16.43C164.37 16.21 164.2 15.99 163.92 15.82C155.831 12.439 147.408 9.92175 138.79 8.30999L138.75 8.59999ZM179.05 16.6C178.9 16.6 178.51 16.85 178.29 17.39L176.01 27.28H177.48C178.576 24.1228 179.197 20.8199 179.32 17.48C179.32 16.92 179.14 16.64 179.01 16.63L179.05 16.6ZM140.3 4.38999H140.12L139.95 4.59999C139.989 4.91699 140.099 5.22105 140.273 5.48945C140.446 5.75785 140.677 5.98365 140.95 6.14999C149.65 8.35999 158.23 10.69 167.43 14.91C167.924 15.0796 168.359 15.3874 168.683 15.7968C169.008 16.2063 169.208 16.7002 169.26 17.22C169.253 17.7559 169.094 18.2788 168.802 18.7283C168.51 19.1778 168.097 19.5355 167.61 19.76C166.876 20.1148 166.039 20.1963 165.25 19.99C159.62 18.73 153.95 16.92 148.46 15.14C146.07 14.38 143.56 13.56 141.29 12.86H140.78L140.58 13.44C140.598 13.7911 140.697 14.1332 140.871 14.4388C141.045 14.7444 141.287 15.0051 141.58 15.2L159.47 21.12C161.974 22.092 164.659 22.5115 167.34 22.35C168.274 22.1073 169.182 21.7723 170.05 21.35C171.69 20.54 172.6 19.5 172.79 18.35C172.98 17.2 172.27 15.75 170.79 14.35C161.61 8.91999 152.01 6.46999 140.3 4.38999ZM130.1 25.6L127.63 25.2L127.28 25.27C127.133 25.3428 127.01 25.4578 126.929 25.6002C126.847 25.7426 126.809 25.9061 126.82 26.07C126.857 26.2457 126.946 26.406 127.077 26.5294C127.207 26.6527 127.372 26.7332 127.55 26.76L130.04 27.15L130.61 27.08C130.9 26.93 130.89 26.56 130.89 26.41C130.847 26.2146 130.75 26.0352 130.611 25.892C130.471 25.7489 130.294 25.6477 130.1 25.6V25.6ZM99.92 24.36C99.44 23.83 98.92 23.62 98.62 23.76L98.24 24.26C98.1973 24.5071 98.2073 24.7605 98.2693 25.0035C98.3314 25.2464 98.4441 25.4736 98.6 25.67L99.6 27.28H101.84L99.92 24.36ZM49.25 2.57999L49.88 2.77999C50.47 2.86999 51.19 2.69999 51.1 2.52999C50.4483 1.59044 49.6517 0.760133 48.74 0.0699878H46.07C47.01 0.889988 48.1 1.71999 49.25 2.57999ZM92.31 22.9C92.0893 23.4287 91.9218 23.9781 91.81 24.54C91.7497 24.7552 91.7632 24.9844 91.8484 25.1911C91.9336 25.3977 92.0855 25.5698 92.28 25.68C92.5199 25.8453 92.8003 25.942 93.0911 25.9596C93.3819 25.9772 93.6719 25.9151 93.93 25.78L94.19 25.65H94.25L96.71 20.59C96.7877 20.357 96.8128 20.1097 96.7834 19.8659C96.754 19.6221 96.6709 19.3878 96.54 19.18C96.3757 18.8583 96.108 18.6012 95.78 18.45C93.08 18.21 90.35 16.53 86.89 14.05C84.0632 12.2031 80.7847 11.1656 77.41 11.05L77.95 12C82.84 13.28 87.05 14.83 91.65 19.61C91.9947 19.992 92.2498 20.446 92.3968 20.939C92.5439 21.432 92.5791 21.9516 92.5 22.46L92.31 22.9ZM42.54 13.35L42.87 13.44C43.0624 13.4705 43.2595 13.4442 43.4372 13.3643C43.6148 13.2843 43.7653 13.1542 43.87 12.99C43.9703 12.8395 44.0187 12.6604 44.0079 12.4799C43.9971 12.2994 43.9276 12.1274 43.81 11.99L40.46 9.45999L39.88 9.70999L39.77 10.42L42.54 13.35ZM67.01 0.0699878H64.13C64.1902 0.17896 64.2642 0.279778 64.35 0.369988C70.01 8.06999 75.77 16.45 80.85 27.28H83.85C82.9695 24.7528 81.9136 22.2901 80.69 19.91C76.8488 12.8288 72.2628 6.17785 67.01 0.0699878V0.0699878ZM37.26 6.06999C36.9969 5.85769 36.7079 5.6796 36.4 5.53999L36.23 5.45999L35.78 5.20999C34.138 4.10145 32.6134 2.82819 31.23 1.40999L31.11 1.64999C30.67 2.64999 30.68 3.22999 31.11 3.70999L33.31 5.99999C33.6528 6.49108 33.8407 7.07352 33.8496 7.67233C33.8585 8.27114 33.688 8.85891 33.36 9.35999C33.1723 9.64596 32.9102 9.8753 32.6018 10.0233C32.2934 10.1713 31.9505 10.2324 31.61 10.2C31.266 10.1305 30.9397 9.99191 30.6509 9.7925C30.3621 9.5931 30.1168 9.33708 29.93 9.03999C29.79 8.75999 29.64 8.61999 29.5 8.59999C29.36 8.57999 29.27 8.59999 28.86 8.85999C27.33 9.77999 27.48 10.56 27.78 11.1C29.2 13 30.47 14 31.66 14.22C32.1879 14.2475 32.7149 14.1516 33.1992 13.9398C33.6835 13.728 34.1118 13.4062 34.45 13C35.719 11.2296 36.6574 9.24431 37.22 7.13999C37.2996 6.97139 37.3417 6.78753 37.3435 6.60108C37.3452 6.41464 37.3065 6.23003 37.23 6.05999L37.26 6.06999ZM33.06 19.88C32.89 19.8611 32.718 19.8861 32.5604 19.9526C32.4029 20.0191 32.265 20.125 32.16 20.26C32.0777 20.4116 32.0459 20.5854 32.0693 20.7563C32.0927 20.9272 32.17 21.0861 32.29 21.21L34.01 22.9L34.51 23.15C34.6427 23.1513 34.7735 23.1179 34.8893 23.053C35.0051 22.988 35.1019 22.8939 35.17 22.78C35.2684 22.6121 35.3117 22.4176 35.2937 22.2239C35.2758 22.0302 35.1976 21.8469 35.07 21.7L33.39 20L33.06 19.88ZM134.73 22.67C132.472 21.6441 130.02 21.1187 127.54 21.13C127.446 21.1958 127.373 21.2876 127.331 21.3942C127.288 21.5008 127.277 21.6175 127.3 21.73C127.335 22.0276 127.445 22.3116 127.62 22.5548C127.795 22.798 128.029 22.9926 128.3 23.12L132.3 24.44C132.76 24.687 133.143 25.0574 133.404 25.5096C133.665 25.9618 133.796 26.4779 133.78 27C133.78 27.09 133.78 27.17 133.78 27.26H137.24C137.3 25.3 137.01 23.81 134.73 22.67V22.67ZM4.85 19.32C6.28387 14.6381 7.04482 9.7761 7.11 4.87999C7.11 4.00999 6.88 3.43999 6.49 3.40999L5.93 3.64999C5.62657 3.9335 5.44695 4.32506 5.43 4.73999C5.21 9.49999 4.74 14.8 3.01 18C2.30146 19.1524 1.25347 20.0572 0.01 20.59V23.41C1.07964 23.1525 2.07431 22.6486 2.91464 21.9385C3.75498 21.2284 4.41772 20.3317 4.85 19.32ZM4.89 0.859988C4.97652 1.12951 5.14003 1.36782 5.36038 1.54552C5.58072 1.72322 5.84826 1.83254 6.13 1.85999H6.43H6.51L10.11 0.0699878H4.95C4.88671 0.190636 4.84874 0.322944 4.83843 0.458792C4.82811 0.594641 4.84566 0.731165 4.89 0.859988V0.859988ZM95.89 15.64C96.16 15.97 98.57 16.02 100.21 15.19C100.4 15.1258 100.576 15.0236 100.725 14.8895C100.875 14.7554 100.996 14.5922 101.08 14.41C101.7 13.21 101.2 11.73 99.44 9.80999C97.41 7.20999 95.01 6.59999 92.06 7.89999C91.986 7.9296 91.9186 7.97366 91.8619 8.0296C91.8051 8.08553 91.76 8.15222 91.7293 8.22577C91.6986 8.29931 91.6828 8.37824 91.6829 8.45795C91.6831 8.53765 91.6991 8.61654 91.73 8.68999C91.8341 8.81591 91.9636 8.91841 92.1101 8.99079C92.2566 9.06317 92.4167 9.10379 92.58 9.10999C95.23 7.92999 97.01 8.86999 98.79 12C99.29 13.66 98.57 13.89 98.01 14.17C97.4749 14.4178 96.8894 14.5376 96.3 14.52C96.1317 14.5447 95.9755 14.6217 95.8534 14.7402C95.7314 14.8586 95.6497 15.0125 95.62 15.18C95.6 15.28 95.67 15.45 95.93 15.64H95.89ZM187.39 14.94L186.75 15.13C186.559 15.2944 186.403 15.4964 186.293 15.7234C186.183 15.9505 186.12 16.1978 186.11 16.45L185.76 18.93C185.57 20.18 185.39 21.43 185.21 22.68C185.03 23.93 184.84 25.09 184.66 26.27C184.652 26.6058 184.615 26.9404 184.55 27.27H186.75L188.03 16.12C188.01 15.45 187.77 15 187.43 14.94H187.39ZM184.01 8.38999C183.889 8.20721 183.756 8.03343 183.61 7.86999C178.939 4.85891 174.022 2.24955 168.91 0.0699878H160.31C166.514 2.29726 172.567 4.92615 178.43 7.93999C179.43 8.55999 179.86 9.17999 179.83 9.77999C179.819 9.96991 179.753 10.1527 179.642 10.3068C179.53 10.4609 179.377 10.5799 179.2 10.65C178.674 10.8121 178.12 10.8638 177.572 10.8019C177.025 10.7399 176.497 10.5657 176.02 10.29C167.204 5.92538 157.953 2.49988 148.42 0.0699878H139.54C139.765 0.33703 140.04 0.55778 140.35 0.719988C147.84 2.19999 157.07 5.71999 165.21 8.86999L165.5 8.95999C171.3 11.2 176.32 13.11 179.22 13.71C180.506 13.8232 181.8 13.5956 182.97 13.05C183.442 12.8619 183.862 12.5643 184.196 12.1818C184.529 11.7992 184.767 11.3427 184.89 10.85C184.996 10.1818 184.842 9.49843 184.46 8.93999C184.322 8.74708 184.172 8.56335 184.01 8.38999V8.38999ZM17.01 25.31C16.5 25.53 16.47 25.66 16.77 26.31C16.8474 26.5649 16.994 26.7933 17.1935 26.9699C17.393 27.1464 17.6376 27.2641 17.9 27.31C18.3763 27.3415 18.8539 27.2698 19.3 27.1L21.99 24.81L22.33 24.24C22.33 24.19 22.27 24.09 21.95 24.04C20.59 23.73 19.85 22.39 19.16 21.17C18.6821 20.1362 17.9406 19.2465 17.01 18.59L16.48 18.41C16.371 18.3789 16.2556 18.3784 16.1462 18.4084C16.0369 18.4383 15.9379 18.4977 15.86 18.58C15.72 18.69 15.77 18.86 15.86 19.15C16.1302 19.7609 16.4655 20.3409 16.86 20.88C17.81 22.27 18.95 24 17.01 25.31ZM108.21 0.269988C107.062 0.748622 105.822 0.963899 104.58 0.899988L104.39 1.38999C104.402 1.50813 104.448 1.62027 104.522 1.71264C104.597 1.80501 104.697 1.87359 104.81 1.90999L107.39 2.35999C110.66 1.82999 112.39 3.19999 112.96 4.54999C113.082 4.78304 113.156 5.0378 113.179 5.29968C113.202 5.56157 113.174 5.82545 113.095 6.07622C113.016 6.327 112.888 6.55974 112.719 6.76115C112.55 6.96256 112.343 7.12867 112.11 7.24999C111.267 7.57924 110.338 7.61794 109.47 7.35999C109.651 7.80093 109.957 8.17962 110.35 8.44999C113.2 10.1 115.97 10.1 117.46 9.33999C117.75 9.23453 118.007 9.05558 118.207 8.82067C118.407 8.58577 118.542 8.30297 118.6 7.99999C118.69 7.16999 118.12 6.26999 116.94 5.33999C114.85 3.99216 113.076 2.20801 111.74 0.109988H108.57C108.45 0.139988 108.34 0.209988 108.21 0.269988ZM11.07 3.38999C10.8776 3.55356 10.7213 3.7554 10.6111 3.98265C10.5009 4.2099 10.4393 4.4576 10.43 4.70999L10.08 7.17999C9.88 8.43999 9.7 9.68999 9.53 10.94C9.36 12.19 9.16 13.35 9.01 14.53C9.04057 15.2498 8.89431 15.9662 8.58401 16.6164C8.27371 17.2667 7.80882 17.831 7.23 18.26L7.16 18.34C6.71616 18.6773 6.3281 19.0822 6.01 19.54C5.36 21.14 5.51 21.54 5.57 21.67H5.7C5.92321 21.693 6.14875 21.6657 6.36 21.59C9.28 19.72 10.79 17.8 11.02 15.53L12.34 4.38999C12.34 3.70999 12.05 3.24999 11.71 3.19999L11.07 3.38999ZM129.42 2.38999C129.95 2.12999 130.42 1.59999 130.23 1.51999C128.14 0.439988 116.75 0.519988 116.75 0.519988C116.985 0.834339 117.294 1.08524 117.65 1.24999C121.308 2.07067 125.041 2.51299 128.79 2.56999L129.42 2.38999ZM105.93 27.24C106.666 26.0872 107.144 24.7885 107.331 23.4334C107.517 22.0783 107.408 20.6988 107.01 19.39C106.821 18.8138 106.517 18.282 106.116 17.8265C105.716 17.3711 105.227 17.0014 104.68 16.74C103.55 16.31 102.05 16.48 100.11 17.27L99.6 17.46C98.8 17.87 98.5 18.46 98.6 18.93C98.6508 19.0844 98.7429 19.2219 98.8663 19.3277C98.9897 19.4335 99.1397 19.5034 99.3 19.53L101.96 18.85C102.649 18.7079 103.367 18.8407 103.96 19.22C104.756 20.1782 105.15 21.4075 105.06 22.65C104.5 25.48 103.7 25.99 104.79 27.11L104.92 27.28H105.92L105.93 27.24ZM103.36 21.7C102.53 20.44 101.88 20.79 101.61 20.91C101.265 21.1139 100.946 21.359 100.66 21.64C100.524 21.7778 100.43 21.9523 100.391 22.1423C100.352 22.3323 100.369 22.5295 100.44 22.71C100.599 22.8877 100.802 23.0209 101.028 23.0963C101.254 23.1717 101.496 23.1868 101.73 23.14C102.049 23.045 102.36 22.9246 102.66 22.78C103.6 22.3 103.5 22 103.36 21.7V21.7ZM119.76 18.39C119.085 18.6533 118.335 18.6533 117.66 18.39C117.36 18.24 117.15 18.21 117.02 18.28C116.89 18.35 116.83 18.39 116.69 18.84C116.07 20.41 116.69 20.95 117.31 21.22C119.69 21.96 121.37 22.06 122.43 21.54C122.863 21.274 123.218 20.8998 123.462 20.4544C123.706 20.009 123.829 19.5077 123.82 19C123.659 16.8446 123.096 14.7384 122.16 12.79C122.049 12.4415 121.809 12.1483 121.49 11.97C121.156 11.9508 120.821 11.9676 120.49 12.02H120.3L119.77 12.07C117.715 12.0947 115.663 11.9239 113.64 11.56L113.7 11.81C113.98 12.81 114.41 13.31 115.09 13.44L118.38 14.08C118.966 14.2655 119.488 14.6125 119.886 15.0812C120.284 15.55 120.542 16.1214 120.63 16.73C120.673 17.0626 120.613 17.4005 120.457 17.6975C120.302 17.9946 120.058 18.2364 119.76 18.39V18.39ZM100.93 6.38999L101.71 7.21999C107.88 13.97 111.84 18.3 108.78 27.31H112.78C113.154 25.9027 113.392 24.4628 113.49 23.01C114.69 15.32 104.79 5.47999 98.71 0.0999878H93.89C96.4882 1.88534 98.8532 3.98829 100.93 6.35999V6.38999ZM16.34 3.80999C16.51 2.35999 15.76 2.26999 15.47 2.21999C15.0559 2.18399 14.6387 2.20417 14.23 2.27999C14.0305 2.30932 13.8429 2.39293 13.6877 2.52167C13.5325 2.65041 13.4157 2.81934 13.35 3.00999C13.28 3.34999 13.59 3.75999 14.09 4.00999C14.4174 4.11041 14.7516 4.18727 15.09 4.23999C16.14 4.42999 16.29 4.08999 16.34 3.80999ZM18.45 2.16999C18.4332 3.41767 17.9353 4.61066 17.06 5.49999C14.75 7.49999 13.78 7.41999 13.91 8.91999C13.84 9.58999 14.13 9.63999 14.28 9.65999H14.74C17.82 8.30999 19.83 6.39999 20.8 3.99999C21.0327 3.46001 21.1435 2.87538 21.1244 2.28771C21.1054 1.70004 20.9571 1.12379 20.69 0.599988C20.5574 0.409292 20.4067 0.231807 20.24 0.0699878H15.16L17.16 0.779988C17.4588 0.910899 17.7275 1.10184 17.9494 1.34096C18.1713 1.58007 18.3417 1.86226 18.45 2.16999V2.16999ZM24.01 22.67C24.4274 22.7113 24.8472 22.6203 25.21 22.41C26.0312 21.7287 26.8928 21.0976 27.79 20.52C29.2114 19.7899 30.423 18.7091 31.31 17.38C31.52 16.75 31.49 16.51 31.44 16.43C31.39 16.35 31.27 16.28 30.67 16.18C28.39 15.71 27.05 14.18 25.67 12.58L25.2 12.33C25.0096 12.3118 24.8178 12.3428 24.6427 12.4198C24.4677 12.4968 24.3153 12.6174 24.2 12.77C24.0981 12.871 24.0278 12.9995 23.9976 13.1397C23.9675 13.28 23.9787 13.426 24.03 13.56L26.23 16.56C26.3693 16.8734 26.4152 17.2204 26.3619 17.5593C26.3087 17.8981 26.1587 18.2144 25.93 18.47C25.7085 18.7402 25.4238 18.9518 25.1012 19.0861C24.7786 19.2204 24.4279 19.2732 24.08 19.24C23.7351 19.2022 23.4138 19.0468 23.17 18.8L20.82 16.5L20.3 16.3C20.1415 16.281 19.9809 16.3065 19.8361 16.3736C19.6912 16.4407 19.568 16.5468 19.48 16.68C19.3957 16.798 19.3455 16.9369 19.3349 17.0816C19.3243 17.2262 19.3538 17.371 19.42 17.5C20.3351 19.1079 21.4507 20.5932 22.74 21.92C23.0685 22.3038 23.5153 22.5676 24.01 22.67ZM14.16 16.27H14.31C17.52 15.46 20.53 13.53 23.52 10.39C26.12 8.03999 27.33 4.22999 27.77 0.0499878H24.6C24.01 5.07999 21.54 8.99999 14.01 13C13.6641 13.2656 13.4045 13.6276 13.2639 14.0404C13.1234 14.4533 13.1081 14.8985 13.22 15.32C13.2608 15.5587 13.3753 15.7787 13.5475 15.9491C13.7197 16.1195 13.9408 16.2317 14.18 16.27H14.16ZM38.12 0.0699878H32.61C33.4434 0.949501 34.537 1.53837 35.73 1.74999C36.0487 1.82678 36.3813 1.82408 36.6987 1.74213C37.016 1.66017 37.3084 1.50147 37.55 1.27999C37.8732 0.954023 38.0745 0.526784 38.12 0.0699878V0.0699878ZM224.12 23.49L217.79 16.43L217.47 16.22L217.17 16.33C216.996 16.58 216.89 16.8713 216.864 17.1749C216.837 17.4785 216.891 17.7837 217.02 18.06C218.789 19.9677 220.348 22.0597 221.67 24.3C221.92 24.7678 222.036 25.2958 222.004 25.8254C221.972 26.355 221.794 26.8654 221.49 27.3H225.33C225.493 26.6175 225.47 25.9036 225.262 25.2332C225.055 24.5628 224.67 23.9607 224.15 23.49H224.12ZM278.7 9.32999C278.234 9.57655 277.731 9.74544 277.21 9.82999L277.01 9.99999C277.141 10.1488 277.297 10.2739 277.47 10.37C279.171 10.8007 280.967 10.6601 282.58 9.96999C282.943 9.83915 283.262 9.60992 283.503 9.30794C283.743 9.00595 283.894 8.64311 283.94 8.25999C283.94 7.16999 282.71 5.83999 280.55 4.56999L280.17 4.29999L280.08 4.21999L280.01 4.06999C279.91 3.87999 279.74 3.43999 277.01 2.89999H276.86C276.97 3.34999 276.68 3.89999 276.01 4.33999C275.533 4.67722 275.032 4.97807 274.51 5.23999C273.95 5.51999 273.25 5.81999 272.42 6.14999L272.21 6.44999C272.41 6.65041 272.661 6.79329 272.935 6.86366C273.21 6.93404 273.498 6.92931 273.77 6.84999C277.56 5.08999 279.55 5.58999 280.16 6.62999C280.77 7.66999 280.01 8.66999 278.7 9.32999ZM288.34 19.33C287.494 19.6493 286.568 19.6844 285.7 19.43C285.879 19.8669 286.181 20.2421 286.57 20.51C289.42 22.17 292.19 22.17 293.68 21.41C293.976 21.303 294.238 21.1185 294.439 20.8757C294.639 20.633 294.771 20.3409 294.82 20.03C294.92 19.2 294.34 18.3 293.16 17.37C290.698 15.7718 288.676 13.5816 287.28 11C287 10.51 286.8 10.41 286.57 10.36C286.319 10.5844 286.107 10.8478 285.94 11.14C285.526 11.6372 285.016 12.0454 284.44 12.34C283.292 12.8186 282.052 13.0339 280.81 12.97L280.61 13.46C280.618 13.5789 280.66 13.6931 280.73 13.7889C280.801 13.8847 280.898 13.9579 281.01 14L283.58 14.45C286.86 13.91 288.58 15.29 289.16 16.63C289.399 17.1034 289.447 17.6506 289.295 18.1586C289.142 18.6666 288.8 19.0966 288.34 19.36V19.33ZM268.28 3.32999L267.95 3.62999C269.989 3.98453 272.087 3.76645 274.01 2.99999C274.78 2.57999 274.96 2.26999 275.01 2.10999C274.981 1.86165 274.859 1.63331 274.67 1.46999C273.6 0.929988 272.57 0.469988 271.57 0.0899878H267.71L268.36 0.319988C269.31 0.719988 269.77 1.16999 269.79 1.72999C269.81 2.28999 269.31 2.83999 268.28 3.34999V3.32999ZM264.2 1.19999C263.465 1.29172 262.753 1.51888 262.1 1.86999C261.5 2.17999 260.87 2.55999 260.43 2.86999C260.23 3.03999 260.2 3.14999 260.23 3.19999C260.26 3.24999 260.53 3.50999 261.23 3.49999C262.125 3.40353 262.997 3.15673 263.81 2.76999C264.24 2.56896 264.627 2.28718 264.95 1.93999C265.2 1.56999 265.15 1.45999 265.13 1.43999C265.11 1.41999 265.01 1.22999 264.2 1.19999ZM252.65 3.07999C253.53 2.53999 254.45 2.00999 255.41 1.53999C256.589 0.946502 257.817 0.454719 259.08 0.0699878H254.91C254.123 0.396654 253.363 0.746655 252.63 1.11999C251.8 1.52999 250.91 2.01999 250.04 2.52999C249.72 2.73999 249.56 2.95999 249.6 3.02999C249.84 3.40999 251.39 3.63999 252.65 3.07999ZM298.39 24.87C298.282 24.52 298.041 24.2259 297.72 24.05C297.386 24.0269 297.05 24.0437 296.72 24.1H296.54L296.01 24.15C293.955 24.1751 291.903 24.0043 289.88 23.64L289.94 23.89C290.22 24.89 290.64 25.39 291.33 25.52L294.61 26.16C295.226 26.3727 295.772 26.7496 296.19 27.25H299.35C299.076 26.4388 298.756 25.6441 298.39 24.87V24.87ZM255.7 23.62C255.082 23.5173 254.457 23.4638 253.83 23.46L254.35 24.36C255.567 24.3436 256.772 24.5959 257.88 25.0989C258.988 25.6019 259.971 26.3432 260.76 27.27H261.88C260.12 24.93 258.01 23.7 255.7 23.62V23.62ZM314.63 25.1C314.484 25.0803 314.336 25.0895 314.193 25.1273C314.051 25.165 313.917 25.2305 313.8 25.32C313.67 25.4099 313.564 25.5293 313.489 25.6684C313.414 25.8074 313.373 25.9622 313.37 26.12L313.16 27.28H315.48C315.54 26.94 315.6 26.6 315.67 26.28C315.679 25.988 315.576 25.7035 315.383 25.4844C315.19 25.2652 314.921 25.1278 314.63 25.1V25.1ZM277.35 26.51C277.96 25.31 277.47 23.83 275.71 21.91C273.63 19.31 271.19 18.7 268.29 20C268.216 20.0296 268.149 20.0737 268.092 20.1296C268.035 20.1855 267.99 20.2522 267.959 20.3258C267.929 20.3993 267.913 20.4782 267.913 20.5579C267.913 20.6377 267.929 20.7165 267.96 20.79C268.061 20.9158 268.189 21.0178 268.334 21.0886C268.479 21.1595 268.638 21.1975 268.8 21.2C271.45 20.03 273.24 20.97 275.01 24.09C275.51 25.76 274.79 25.99 274.24 26.27C273.701 26.5175 273.113 26.6373 272.52 26.62C272.351 26.6405 272.194 26.7164 272.073 26.8358C271.951 26.9552 271.873 27.1114 271.85 27.28H276.51C276.877 27.1376 277.176 26.8628 277.35 26.51V26.51ZM240.01 7.59999H239.79C239.555 8.1355 239.456 8.72107 239.503 9.30407C239.551 9.88706 239.742 10.4492 240.06 10.94C243.854 16.1999 247.382 21.6467 250.63 27.26H254.22C250.309 20.4679 245.744 14.0742 240.59 8.16999C240.35 7.80999 240.18 7.63999 240.01 7.59999ZM40.71 21.92C39.5782 19.8382 37.9671 18.0558 36.01 16.72C35.8895 16.7208 35.7713 16.7536 35.6676 16.8151C35.564 16.8766 35.4785 16.9646 35.42 17.07C35.2526 17.3149 35.1557 17.6011 35.1398 17.8974C35.1239 18.1936 35.1897 18.4886 35.33 18.75L37.65 22C37.8383 22.478 37.8847 23.0003 37.7836 23.504C37.6825 24.0078 37.4382 24.4716 37.08 24.84C36.7853 25.2331 36.3962 25.5455 35.9487 25.7483C35.5013 25.951 35.0098 26.0376 34.52 26C34.0578 25.9455 33.626 25.7419 33.29 25.42L30.59 22.82L30.17 22.51C29.89 22.51 29.55 22.72 29.34 23.12C29.13 23.52 28.97 24.12 29.34 24.47L32.21 27.25H39.36C40.91 25.62 41.85 24.22 40.71 21.92ZM272.45 24.53C272.552 24.4794 272.639 24.4029 272.702 24.3081C272.765 24.2134 272.803 24.1036 272.81 23.99C272.33 22.99 271.81 22.65 271.51 22.59C271.113 22.594 270.727 22.7159 270.4 22.94C270.03 23.36 269.83 23.68 269.87 23.88C269.91 24.08 270.23 24.39 270.66 24.57C271.247 24.7348 271.871 24.7209 272.45 24.53V24.53ZM255.26 20.29C254.357 20.1498 253.444 20.0763 252.53 20.07L253.16 21.31C256.81 21.39 259.82 22.46 262.16 25.31C262.539 26.022 262.991 26.6924 263.51 27.31H265.01C262.64 22.76 259.37 20.42 255.26 20.29ZM317.43 6.63999C317.27 6.66405 317.118 6.72668 316.987 6.82249C316.857 6.9183 316.751 7.04441 316.68 7.18999C316.45 7.65999 316.68 7.18999 316.03 8.62999C311.97 22.26 314.56 22.85 314.56 22.85C315.055 23.2751 315.678 23.5217 316.33 23.55C316.705 23.5718 317.082 23.5449 317.45 23.47V20.63C317.297 20.6707 317.138 20.6876 316.98 20.68C316.48 20.68 315.65 20.31 315.66 18.45C315.922 15.1867 316.522 11.9594 317.45 8.81999L317.43 6.63999ZM200.8 2.34999C201.055 2.56434 201.26 2.83225 201.4 3.1347C201.54 3.43715 201.612 3.76672 201.61 4.09999C201.565 4.27449 201.484 4.43762 201.372 4.57885C201.26 4.72009 201.12 4.8363 200.96 4.91999C199.917 5.32614 198.791 5.47036 197.68 5.33999C193.192 5.04546 188.792 3.96222 184.68 2.13999C183.25 1.41999 181.85 0.739988 180.48 0.0699878H173.77C179.4 2.58999 183.15 3.38999 187.77 6.12999C187.94 6.29172 188.094 6.46918 188.23 6.65999C195.77 9.65999 202.79 9.32999 209.69 5.50999C210.34 5.14999 211.03 4.71999 211.69 4.28999C212.69 3.42999 212.61 3.07999 212.6 3.06999C212.59 3.05999 212.24 2.77999 211.5 2.68999C208.618 2.35065 205.827 1.46122 203.28 0.0699878H197.34L200.8 2.34999ZM193.48 3.23999C194.146 3.40533 194.848 3.34917 195.48 3.07999C195.573 3.04231 195.654 2.98088 195.715 2.90189C195.777 2.82289 195.816 2.72912 195.83 2.62999C195.83 2.11999 195.12 1.38999 193.95 0.679988L192.86 0.0699878H187.01L193.48 3.23999ZM305.29 24.36C305.415 24.2805 305.509 24.1614 305.558 24.0217C305.607 23.8821 305.608 23.73 305.56 23.59C305.517 23.4452 305.432 23.3161 305.317 23.2185C305.201 23.1208 305.06 23.0588 304.91 23.04L301.48 23.2L301.31 23.64L301.69 24.13L305.06 24.47L305.29 24.36ZM56.78 23.16C55.51 21.16 54.19 19.05 52.95 17.16L52.55 16.88L51.98 17.2C51.7484 17.4599 51.5844 17.7729 51.5024 18.1112C51.4204 18.4496 51.423 18.8029 51.51 19.14L56.51 27.27H59.41C58.52 25.91 57.65 24.53 56.78 23.16ZM0.39 7.45999C0.416706 7.30374 0.39454 7.14306 0.326531 6.99989C0.258521 6.85671 0.14798 6.73801 0.01 6.65999V8.74999C0.13 8.29999 0.26 7.85999 0.39 7.45999ZM246.17 0.0699878H242.76C242.613 0.234976 242.476 0.40862 242.35 0.589988C242.012 1.04521 241.743 1.54714 241.55 2.07999C241.55 2.07999 239.86 6.68999 245.34 8.66999C247.48 9.43999 249.34 9.17999 251.56 8.97999C252.71 8.87999 253.56 8.81999 254.4 8.78999C255.99 8.78999 257.61 8.78999 259.21 8.91999C265.42 9.15999 270.14 10.74 277.16 18.46L277.93 19.29C280.35 21.7118 282.493 24.395 284.32 27.29H287.92C284.08 19.92 275.35 12.51 271.85 9.55999C268.452 6.89049 264.148 5.64945 259.85 6.09999L247.32 6.54999C246.642 6.46264 245.994 6.21357 245.432 5.82375C244.87 5.43393 244.41 4.91478 244.09 4.30999C243.54 3.11999 244.21 2.49999 245.15 1.19999C245.447 0.786279 245.789 0.40723 246.17 0.0699878V0.0699878ZM235.17 3.52999C235.409 3.84489 235.539 4.2295 235.539 4.62499C235.539 5.02048 235.409 5.40508 235.17 5.71999C234.933 6.00613 234.617 6.21643 234.261 6.32485C233.906 6.43328 233.526 6.43506 233.17 6.32999C232.552 6.17701 231.98 5.87875 231.5 5.45999C229.861 3.53266 228.079 1.73094 226.17 0.0699878H223.68C226.841 2.81371 229.821 5.75991 232.6 8.88999C233.129 9.50735 233.823 9.96166 234.6 10.2C234.979 10.2557 235.365 10.2233 235.729 10.1054C236.094 9.98747 236.426 9.78714 236.7 9.51999C238.7 6.82999 237.99 3.73999 234.6 0.129988L234.52 0.0699878H231.91C233.063 1.15288 234.145 2.30859 235.15 3.52999H235.17ZM281.42 0.879988H281.17C282.068 1.34351 283.052 1.61912 284.06 1.68999C291.49 1.21999 304 0.969988 310.16 2.25999C310.529 2.33114 310.867 2.51755 311.124 2.79243C311.381 3.06732 311.544 3.41656 311.59 3.78999C311.584 4.12031 311.478 4.44102 311.285 4.70913C311.092 4.97723 310.822 5.17991 310.51 5.28999C309.936 5.5212 309.318 5.62361 308.7 5.58999C301.754 4.51997 294.713 4.21148 287.7 4.66999L287.64 4.98999C287.771 5.27104 287.991 5.50141 288.265 5.64587C288.54 5.79033 288.854 5.84095 289.16 5.78999C296.716 5.69257 304.267 6.24123 311.73 7.42999C312.491 7.57286 313.276 7.51777 314.01 7.26999C314.321 7.11752 314.588 6.88916 314.788 6.60601C314.987 6.32286 315.111 5.99406 315.15 5.64999C314.9 2.64999 312.4 0.869988 307.55 0.189988C306.39 0.189988 305.02 0.0999878 303.55 0.0699878H291.44C288.085 0.100941 284.736 0.37163 281.42 0.879988V0.879988ZM309.84 9.93999C304.18 8.43999 297.55 7.93999 289 8.23999L288.87 8.57999C288.972 8.87816 289.159 9.14009 289.408 9.33369C289.656 9.5273 289.956 9.64417 290.27 9.66999C291.81 9.81999 293.95 9.86999 296.43 9.91999C301.23 10.02 306.17 10.12 307.71 11.11C308.283 11.3833 308.771 11.8064 309.123 12.3345C309.475 12.8626 309.678 13.4761 309.71 14.11C309.715 14.492 309.61 14.8674 309.408 15.1918C309.206 15.5161 308.915 15.7757 308.57 15.94C308.068 16.1773 307.515 16.2905 306.96 16.27L296.16 16H295.92L295.85 16.08C296.152 16.5498 296.544 16.9545 297.004 17.2705C297.465 17.5865 297.983 17.8073 298.53 17.92C301.207 18.3778 303.915 18.6252 306.63 18.66H307.36C308.71 18.7686 310.068 18.6158 311.36 18.21C311.785 17.9832 312.133 17.6351 312.36 17.21C313.22 14.47 311.69 10.91 309.84 9.93999V9.93999ZM311.01 26.47C311.279 25.3647 311.244 24.2073 310.91 23.12C310.661 22.3208 310.156 21.6256 309.473 21.1414C308.79 20.6572 307.967 20.4108 307.13 20.44L299.46 20L299.17 20.06L299.09 20.28C299.179 20.5149 299.319 20.7268 299.501 20.8999C299.683 21.073 299.901 21.2029 300.14 21.28C302.26 21.3676 304.367 21.6623 306.43 22.16C306.881 22.2824 307.292 22.5187 307.625 22.8463C307.958 23.1738 308.2 23.5814 308.33 24.03C308.412 24.2899 308.41 24.5693 308.324 24.8281C308.238 25.0868 308.072 25.3115 307.85 25.47C307.477 25.6906 307.039 25.7754 306.61 25.71L302.3 25.79C302.235 25.8719 302.192 25.9695 302.176 26.073C302.161 26.1765 302.172 26.2823 302.21 26.38C302.321 26.7607 302.576 27.0833 302.92 27.28H310.41C310.684 27.0734 310.892 26.7922 311.01 26.47V26.47ZM247.76 12.88L248.29 13.81C250.29 13.22 252.81 12.69 254.08 13.66C254.64 13.7505 255.215 13.6482 255.71 13.37C256.47 12.99 256.71 12.54 256.71 12.45L256.4 12.34C254.31 11.43 250.39 11.78 247.76 12.88ZM305.64 14.45C306.17 14.18 306.64 13.66 306.45 13.58C304.36 12.5 292.97 12.58 292.97 12.58C293.208 12.8948 293.521 13.1456 293.88 13.31C297.535 14.1301 301.265 14.5725 305.01 14.63L305.64 14.45ZM256.01 27.17L256.19 27.28H257.81C257.083 26.9066 256.323 26.6019 255.54 26.37L256.01 27.17ZM61.77 3.58999L61.48 3.29999L61.18 3.52999C60.8346 3.96253 60.5981 4.47162 60.4902 5.01451C60.3823 5.55741 60.4062 6.11826 60.56 6.64999C65.07 12.15 69.41 20.14 73.26 27.28H77.01C72.59 18.52 66.94 10.58 61.77 3.58999ZM95.57 26.9L95.29 27.28H96.59C96.21 26.91 95.84 26.77 95.57 26.9ZM82.09 19.13L83.94 22.36C85.5561 23.6331 86.7768 25.3394 87.46 27.28H90.46C90.3886 27.1141 90.305 26.9536 90.21 26.8C88.029 23.7386 85.2706 21.1331 82.09 19.13ZM182.93 15.75L182.3 15.95C181.961 16.2186 181.742 16.6104 181.69 17.04C181.371 20.5121 180.701 23.943 179.69 27.28H181.69C182.596 24.0077 183.208 20.6611 183.52 17.28C183.57 16.41 183.35 15.81 182.93 15.75V15.75ZM190.5 21.75H191.01C194.1 20.4 196.11 18.49 197.08 16.09C197.313 15.55 197.423 14.9654 197.404 14.3777C197.385 13.79 197.237 13.2138 196.97 12.69C196.35 11.69 195.04 11.04 192.97 10.59L192.43 10.46C192.107 10.3822 191.768 10.3994 191.454 10.5093C191.14 10.6193 190.864 10.8174 190.66 11.08C190.596 11.2226 190.577 11.3813 190.606 11.5349C190.635 11.6885 190.709 11.8298 190.82 11.94L193.39 12.86C193.693 12.9909 193.967 13.1814 194.196 13.4202C194.424 13.6589 194.603 13.9411 194.72 14.25C194.701 15.5001 194.203 16.6953 193.33 17.59C191.01 19.55 190.01 19.52 190.13 21C190.07 21.69 190.35 21.74 190.5 21.76V21.75ZM199.77 22.5C202.99 19.58 204.08 14.83 204.2 9.49999L200.98 10.23C200.83 15.71 199.34 19.52 192.98 23.53L192.41 23.17L192.87 23.6C192.06 24.1 191.19 24.6 190.23 25.11C189.904 25.3586 189.654 25.6939 189.509 26.0775C189.364 26.4611 189.33 26.8778 189.41 27.28H193.54C195.879 26.0659 197.988 24.4515 199.77 22.51V22.5ZM41.69 5.26999L41.36 5.08999L41.08 5.21999C40.9326 5.47723 40.8551 5.76853 40.8551 6.06499C40.8551 6.36144 40.9326 6.65275 41.08 6.90999C42.9453 8.61513 44.6216 10.5161 46.08 12.58C46.3853 13.0393 46.5482 13.5785 46.5482 14.13C46.5482 14.6815 46.3853 15.2207 46.08 15.68C45.8864 15.9812 45.6125 16.2223 45.2891 16.3761C44.9657 16.5298 44.6058 16.59 44.25 16.55C43.7176 16.4592 43.2314 16.1914 42.87 15.79L38.74 12.5C38.6037 12.5139 38.4727 12.5602 38.3579 12.635C38.2431 12.7098 38.1478 12.8109 38.08 12.93C37.9087 13.1729 37.8167 13.4628 37.8167 13.76C37.8167 14.0572 37.9087 14.3471 38.08 14.59L43.01 19.26C43.4732 19.6907 44.0486 19.9818 44.67 20.1C45.1729 20.1662 45.6842 20.0828 46.14 19.86C47.425 19.1436 48.5058 18.111 49.28 16.86C49.8243 16.028 50.0331 15.0207 49.8642 14.0409C49.6954 13.0611 49.1614 12.1817 48.37 11.58L41.69 5.26999ZM189.57 15.11C189.51 15.45 189.81 15.85 190.31 16.16C190.637 16.2604 190.972 16.3373 191.31 16.39C192.38 16.53 192.53 16.19 192.59 15.91C192.76 14.46 192.01 14.36 191.71 14.32C191.298 14.2685 190.882 14.2685 190.47 14.32C190.262 14.3574 190.069 14.4507 189.91 14.5899C189.752 14.7291 189.634 14.9089 189.57 15.11V15.11ZM48.81 21.68C48.6451 21.6582 48.4773 21.6778 48.3219 21.7372C48.1665 21.7966 48.0284 21.8938 47.92 22.02C47.8111 22.2474 47.7702 22.5014 47.8021 22.7515C47.8341 23.0016 47.9375 23.2372 48.1 23.43C49.3 24.68 50.41 25.96 51.45 27.28H53.86C52.6267 25.66 51.2033 23.92 49.59 22.06C49.3683 21.8664 49.0991 21.7353 48.81 21.68V21.68ZM44.01 23.68C43.8655 24.0145 43.7994 24.3776 43.8167 24.7416C43.834 25.1055 43.9343 25.4607 44.11 25.78L45.31 27.26H47.79C46.6106 25.9905 45.3478 24.8012 44.01 23.7V23.68ZM53.19 9.35999C55.7 7.59999 56.89 3.78999 56.08 1.92999C55.6 1.30999 55.09 0.689988 54.55 0.0699878H52.55C53.0188 0.529265 53.3925 1.07633 53.65 1.67999C53.9015 2.26311 53.9915 2.90315 53.9105 3.53302C53.8296 4.16288 53.5807 4.75938 53.19 5.25999C52.9371 5.58556 52.6013 5.83716 52.2177 5.98846C51.8342 6.13976 51.4171 6.18518 51.01 6.11999C50.4703 6.02977 49.9616 5.80636 49.53 5.46999L42.53 0.0699878H40.93C41.0577 0.797888 41.3596 1.48408 41.81 2.06999C43.6186 3.98623 45.5892 5.74275 47.7 7.31999L48.29 7.72999C49.28 8.59434 50.4423 9.23856 51.7 9.61999C52.2115 9.6835 52.7303 9.59298 53.19 9.35999V9.35999ZM58.06 10.02L57.78 10.08C57.5906 10.3307 57.4629 10.6225 57.4073 10.9318C57.3517 11.241 57.3698 11.559 57.46 11.86C61.2061 16.7862 64.6492 21.9357 67.77 27.28H70.61C67.45 21.36 63.24 16 58.18 10.14L58.06 10.02ZM62.31 27.28H64.91C61.9451 22.1757 58.5671 17.3228 54.81 12.77L54.58 12.96C54.4079 13.1177 54.273 13.3116 54.1848 13.5278C54.0966 13.7439 54.0574 13.9769 54.07 14.21C56.62 18.69 59.38 23.06 62.31 27.28ZM225.92 14.28L226.55 14.54C227.17 14.68 227.93 14.54 227.85 14.38C227.04 12.23 218.11 5.08999 218.11 5.08999C218.053 5.47566 218.102 5.86946 218.25 6.22999C220.504 9.17697 223.076 11.8665 225.92 14.25V14.28ZM237.16 13.88L236.85 14.11C236.502 14.5395 236.261 15.0452 236.146 15.5857C236.032 16.1263 236.047 16.6863 236.19 17.22C238.64 20.417 240.853 23.7894 242.81 27.31H246.35C243.44 22.63 240.35 18.24 237.45 14.17L237.16 13.88ZM233.63 20.55L233.36 20.61C233.165 20.8561 233.031 21.1446 232.969 21.452C232.906 21.7595 232.917 22.0774 233 22.38C234.17 24.02 235.33 25.65 236.46 27.31H239.08C237.44 25.13 235.66 22.93 233.76 20.67L233.63 20.55ZM207.83 22.37C207.14 22.2117 206.538 21.7924 206.15 21.2C206.01 20.91 205.87 20.78 205.72 20.76C205.57 20.74 205.5 20.76 205.09 21.02C203.56 21.94 203.71 22.71 204.01 23.26C205.43 25.17 206.7 26.18 207.88 26.35C208.413 26.3708 208.944 26.2668 209.43 26.0463C209.916 25.8258 210.344 25.4949 210.68 25.08C211.945 23.3073 212.883 21.3227 213.45 19.22C213.578 18.8989 213.578 18.541 213.45 18.22C213.188 18.0089 212.899 17.834 212.59 17.7L212.43 17.62L212.01 17.3C210.37 16.1883 208.846 14.9153 207.46 13.5L207.34 13.74C206.91 14.68 206.92 15.32 207.34 15.8L209.53 18.13C209.871 18.622 210.054 19.2063 210.054 19.805C210.054 20.4036 209.871 20.988 209.53 21.48C209.349 21.7618 209.096 21.9901 208.797 22.1413C208.498 22.2925 208.164 22.3611 207.83 22.34V22.37ZM262.24 15.14C262.02 15.37 262.02 15.51 262.02 15.53C262.02 15.55 262.18 15.94 263.24 16.38C263.612 16.5317 264.023 16.5563 264.41 16.45C264.7 16.33 264.62 15.95 264.5 15.73C264.21 15.09 263.41 14.68 262.24 15.11V15.14ZM216.17 20.67L215.55 20.89L215.37 21.62L218.01 24.82L218.34 24.94C218.537 24.9916 218.745 24.9819 218.936 24.9122C219.127 24.8425 219.293 24.7161 219.41 24.55C219.514 24.4041 219.57 24.2293 219.57 24.05C219.57 23.8707 219.514 23.6959 219.41 23.55L216.17 20.67ZM266.01 17.35L266.23 17.84C266.747 17.9189 267.276 17.8423 267.75 17.62C268.023 17.4981 268.262 17.3114 268.447 17.0762C268.632 16.8409 268.756 16.5642 268.81 16.27C268.834 15.8865 268.763 15.503 268.602 15.1539C268.442 14.8048 268.197 14.5011 267.89 14.27C264.56 11.8 261.97 12.27 259.11 13.68L258.73 13.87C258.4 14.16 258.37 14.41 258.41 14.48C258.45 14.55 258.97 14.92 259.96 14.48C261.55 13.68 263.44 12.72 266.27 14.74C267.03 15.3 267.12 15.8 267.1 16.14C267.01 16.68 266.81 16.94 266.01 17.35ZM249.9 15.68L250.9 17.38C256.03 17.26 260.33 18.58 263.84 22.38C265.51 25.09 267.14 26.59 268.64 26.82H268.98L268.69 26.18C264.9 19.18 259.91 15.71 253.76 15.79C252.465 15.6509 251.161 15.6141 249.86 15.68H249.9ZM214.15 23.68C214.008 23.6834 213.868 23.7206 213.743 23.7884C213.618 23.8562 213.511 23.9527 213.43 24.07C213.227 24.3033 213.1 24.593 213.066 24.9003C213.032 25.2076 213.093 25.518 213.24 25.79L214.62 27.32H217.99L214.15 23.68ZM222.84 5.38999C226.44 8.59999 230.16 11.92 230.58 13.7C230.791 14.3253 230.828 14.9961 230.687 15.6408C230.546 16.2855 230.233 16.8797 229.78 17.36C229.492 17.6664 229.13 17.8936 228.729 18.0197C228.328 18.1458 227.901 18.1665 227.49 18.08C226.938 17.946 226.429 17.6742 226.01 17.29L217.9 9.99999L217.72 9.83999H217.61C217.478 10.3911 217.466 10.9643 217.577 11.5202C217.687 12.0761 217.917 12.6014 218.25 13.06C219.948 15.2048 221.836 17.1928 223.89 19L224.46 19.47C225.42 20.4374 226.571 21.1935 227.84 21.69C228.36 21.8056 228.902 21.7674 229.4 21.58C232.17 19.96 233.75 16.13 233.08 14.15C230.08 9.53999 225.74 5.04999 219.53 0.149988H217.85C217.866 0.543771 218.014 0.920786 218.27 1.21999C219.33 2.24999 220.93 3.68999 222.8 5.34999L222.84 5.38999ZM210.63 10.11C209.766 9.91596 208.995 9.42827 208.45 8.72999C208.313 9.16957 208.313 9.6404 208.45 10.08C209.63 12.97 211.84 14.5 213.53 14.72C213.849 14.7968 214.181 14.7941 214.499 14.7121C214.816 14.6302 215.108 14.4715 215.35 14.25C215.97 13.64 216.11 12.6 215.78 11.25C215.106 9.22206 214.834 7.08204 214.98 4.94999C214.441 5.57038 213.767 6.05947 213.01 6.37999C213.239 7.02703 213.239 7.73295 213.01 8.37999C212.86 8.89581 212.539 9.34484 212.098 9.65233C211.658 9.95983 211.126 10.1072 210.59 10.07L210.63 10.11ZM230.11 23.42C229.937 23.5761 229.8 23.7678 229.709 23.9818C229.617 24.1959 229.573 24.4273 229.58 24.66C230.06 25.54 230.58 26.41 231.05 27.28H233.42C232.427 25.9467 231.403 24.5967 230.35 23.23L230.11 23.42ZM201.91 24.68L201.44 24.43C201.251 24.4126 201.06 24.4428 200.885 24.5179C200.711 24.593 200.558 24.7106 200.44 24.86C200.338 24.9628 200.266 25.0925 200.235 25.234C200.203 25.3756 200.212 25.5232 200.26 25.66L201.43 27.28H204.6C203.595 26.5326 202.691 25.6587 201.91 24.68V24.68Z" fill="#971864"/>
<path d="M441.43 27.28H437.92C437.737 26.9243 437.451 26.6317 437.1 26.44L433.33 25.23C433.205 25.1558 433.103 25.0482 433.036 24.9192C432.969 24.7902 432.939 24.645 432.95 24.5C432.945 24.314 432.992 24.1303 433.086 23.9696C433.179 23.8088 433.316 23.6773 433.48 23.59L434.02 23.53C436.19 24.05 438.26 24.53 440.38 23.64C440.92 23.38 441.06 23.37 441.17 23.41C441.28 23.45 441.44 23.61 441.69 24.24C441.839 25.2598 441.75 26.3003 441.43 27.28V27.28ZM344.73 24.5L344.4 24.23C344.265 24.2414 344.135 24.2833 344.019 24.3526C343.903 24.4219 343.804 24.5168 343.73 24.63C343.535 24.8683 343.407 25.1542 343.36 25.4583C343.313 25.7624 343.347 26.0737 343.46 26.36L343.97 27.28H346.67C346.126 26.2856 345.476 25.3534 344.73 24.5V24.5ZM479.46 27.28C478.992 26.0374 478.222 24.9308 477.22 24.06C475 22.34 468.47 20.06 459.33 17.87C459.031 17.8438 458.729 17.8884 458.45 18C458.308 18.0726 458.188 18.1827 458.103 18.3183C458.019 18.454 457.973 18.6101 457.97 18.77C458.044 19.0166 458.181 19.2393 458.37 19.415C458.558 19.5907 458.789 19.7133 459.04 19.77C464.339 20.7248 469.47 22.4498 474.27 24.89C474.701 25.0854 475.069 25.3962 475.334 25.7881C475.598 26.1799 475.749 26.6375 475.77 27.11C475.77 27.16 475.77 27.22 475.77 27.27L479.46 27.28ZM483.01 24.82L482.19 27.28H483.63C483.79 26.54 483.93 25.77 484.06 24.96C484.06 24.41 483.93 24.11 483.85 24.1C483.77 24.09 483.28 24.3 483.01 24.82ZM456.01 22.27C456.126 22.6263 456.316 22.954 456.567 23.2315C456.819 23.5091 457.127 23.7301 457.47 23.88L470.13 27.28H472.42L472.56 27.1L472.44 26.77C467.292 24.2579 461.72 22.7316 456.01 22.27V22.27ZM389.49 1.70998C391.49 1.11998 394.01 0.589978 395.28 1.55998C395.841 1.65538 396.417 1.55286 396.91 1.26998C397.67 0.889978 397.96 0.439978 397.91 0.359978L397.61 0.239978L397.13 0.069978H391.25C390.485 0.243996 389.736 0.481485 389.01 0.779978L389.49 1.70998ZM403.49 3.00998C403.27 3.23998 403.26 3.37998 403.26 3.40998C403.26 3.43998 403.42 3.80998 404.49 4.24998C404.858 4.40167 405.266 4.4263 405.65 4.31998C405.95 4.19998 405.86 3.81998 405.75 3.59998C405.42 2.99998 404.61 2.57998 403.45 2.99998L403.49 3.00998ZM401.12 2.36998C402.71 1.56998 404.61 0.619978 407.43 2.63998C407.685 2.77253 407.898 2.97394 408.045 3.22137C408.192 3.46881 408.266 3.75239 408.26 4.03998C408.26 4.57998 408.06 4.83998 407.26 5.24998L407.48 5.73998C407.997 5.81533 408.525 5.73891 409 5.51998C409.273 5.39651 409.513 5.20957 409.699 4.97474C409.885 4.73991 410.012 4.46399 410.07 4.16998C410.089 3.78619 410.014 3.40361 409.852 3.0552C409.69 2.70678 409.446 2.40298 409.14 2.16998C405.82 -0.300022 403.22 0.169978 400.36 1.58998L399.98 1.76998C399.65 2.05998 399.63 2.30998 399.67 2.37998C399.71 2.44998 400.09 2.83998 401.08 2.36998H401.12ZM390.69 3.78998L391.69 5.47998C396.81 5.36998 401.12 6.68998 404.62 10.48C406.29 13.19 407.93 14.69 409.42 14.92H409.77L409.48 14.28C405.69 7.27998 400.69 3.80998 394.55 3.88998C393.268 3.75654 391.977 3.72311 390.69 3.78998V3.78998ZM414.01 11.89C413.53 10.89 413.01 10.55 412.71 10.5C412.317 10.4962 411.932 10.615 411.61 10.84C411.24 11.26 411.04 11.58 411.08 11.78C411.12 11.98 411.43 12.29 411.87 12.48C412.452 12.6462 413.068 12.6462 413.65 12.48C413.759 12.4254 413.851 12.3412 413.915 12.2368C413.979 12.1324 414.012 12.0122 414.01 11.89ZM487.86 22.82C487.71 22.82 487.29 23.03 487.02 23.54L485.77 27.28H487.36C487.63 26.16 487.86 24.96 488.07 23.69C488.1 23.13 487.94 22.84 487.86 22.82ZM407.21 20.71C404.38 18.01 398.98 14.86 396.72 14.27L397.18 15.07C400.52 17.0584 403.664 19.3587 406.57 21.94C407.68 22.69 407.55 21 407.21 20.71ZM493.07 18.57C492.897 18.5826 492.729 18.6352 492.58 18.7237C492.431 18.8122 492.304 18.9342 492.21 19.08C491.93 19.55 491.66 20.08 491.41 20.51L489.15 27.28H490.93C491.567 24.6065 492.416 21.9882 493.47 19.45C493.52 19.16 493.51 18.93 493.07 18.57ZM321.45 23.43L321.01 23H320.73C320.218 23.7581 319.982 24.6687 320.06 25.58C320.16 26.15 320.25 26.7 320.32 27.24H322.63C322.28 26.06 321.9 24.78 321.45 23.43ZM318.1 25.17C317.964 25.197 317.84 25.2669 317.746 25.3695C317.653 25.472 317.594 25.6019 317.58 25.74C317.52 26.11 317.48 26.45 317.43 26.8V27.28H318.52C318.52 26.92 318.52 26.55 318.6 26.19C318.53 25.43 318.27 25.18 318.1 25.17V25.17ZM319.76 5.32998L318.01 16.92C318.01 17.34 318.25 17.38 318.38 17.39C318.51 17.4 318.84 17.29 318.98 16.86C320.18 13.94 320.74 10.16 320.7 5.31998C320.63 4.78998 320.45 4.52998 320.37 4.51998C320.29 4.50998 319.93 4.79998 319.76 5.32998V5.32998ZM329.57 20.18C329.465 20.023 329.324 19.8929 329.16 19.8C329.16 19.8 328.96 19.98 328.82 20.47C328.639 21.6651 328.731 22.8857 329.09 24.04L329.15 24.16C329.459 25.1696 329.587 26.2257 329.53 27.28H331.2C331.514 24.795 330.937 22.2791 329.57 20.18V20.18ZM325.77 25.4C325.77 24.99 326.54 24.52 326.68 24.8C326.89 25.26 327.16 25.65 327.35 25.57C328.04 25.76 327.35 22.67 327.35 22.67C327.227 22.524 327.074 22.4064 326.902 22.3253C326.729 22.2442 326.541 22.2014 326.35 22.2C325.856 22.1841 325.366 22.2979 324.93 22.53C324.29 22.67 323.87 23 324.03 24.08C324.039 25.1562 324.16 26.2286 324.39 27.28H326.1C325.911 26.6699 325.8 26.0381 325.77 25.4V25.4ZM451.09 2.50998C451.108 2.89235 451.016 3.27179 450.824 3.60327C450.633 3.93474 450.35 4.20431 450.01 4.37998C449.505 4.60741 448.952 4.70701 448.4 4.66998L437.51 4.17998H437.27L437.2 4.25998C437.812 5.25511 438.788 5.97255 439.92 6.25998C442.608 6.78271 445.333 7.09367 448.07 7.18998H448.81C450.155 7.33358 451.516 7.20433 452.81 6.80998C453.239 6.58884 453.589 6.23926 453.81 5.80998C454.278 3.87144 453.961 1.8267 452.93 0.119978H450.01C450.655 0.754769 451.04 1.60679 451.09 2.50998V2.50998ZM458.09 26.78L457.09 26.5C457.015 26.5912 456.961 26.6971 456.93 26.8108C456.899 26.9245 456.892 27.0435 456.91 27.16C456.91 27.16 456.91 27.24 456.91 27.28H459.79L458.09 26.78ZM442.01 8.85998H441.63L441.49 9.11998C441.553 9.41657 441.686 9.69351 441.88 9.92695C442.073 10.1604 442.32 10.3433 442.6 10.46C445.221 10.8057 447.803 11.4018 450.31 12.24C450.841 12.4333 451.308 12.7688 451.66 13.2097C452.013 13.6506 452.238 14.18 452.31 14.74C452.355 15.0807 452.294 15.4268 452.137 15.7324C451.98 16.0379 451.733 16.2882 451.43 16.45C450.924 16.6755 450.359 16.7282 449.82 16.6L444.42 16.22C444.32 16.304 444.245 16.4135 444.203 16.5368C444.161 16.6601 444.153 16.7925 444.18 16.92C444.21 17.224 444.327 17.513 444.516 17.7524C444.706 17.9918 444.961 18.1715 445.25 18.27L452.25 19.27C452.891 19.3551 453.543 19.2688 454.14 19.02C454.569 18.7988 454.919 18.4493 455.14 18.02C455.69 16.7281 455.881 15.3112 455.69 13.92C455.528 12.909 455.019 11.9859 454.251 11.309C453.483 10.6321 452.503 10.2435 451.48 10.21L442.01 8.85998ZM448.34 14.72C448.507 14.6394 448.645 14.5079 448.733 14.3445C448.821 14.181 448.855 13.994 448.83 13.81C448.801 13.627 448.718 13.4569 448.591 13.3215C448.465 13.186 448.301 13.0915 448.12 13.05L443.79 12.87L443.49 13.39L443.88 14.02L448.02 14.83L448.34 14.72ZM456.23 8.59998C456.218 8.83245 456.259 9.06463 456.349 9.2793C456.439 9.49397 456.576 9.6856 456.75 9.83998C464.733 12.6688 472.882 15.0065 481.15 16.84L481.62 16.78L481.85 16.43C481.85 16.21 481.68 15.99 481.4 15.82C473.311 12.439 464.888 9.92174 456.27 8.30998L456.23 8.59998ZM496.54 16.6C496.38 16.6 495.99 16.85 495.77 17.39L493.52 27.25H494.99C496.087 24.0928 496.707 20.7899 496.83 17.45C496.75 16.92 496.56 16.64 496.49 16.63L496.54 16.6ZM457.73 4.38998H457.55L457.38 4.59998C457.419 4.91698 457.529 5.22104 457.703 5.48944C457.876 5.75784 458.107 5.98364 458.38 6.14998C467.08 8.35998 475.66 10.69 484.86 14.91C485.354 15.0796 485.789 15.3874 486.114 15.7968C486.438 16.2063 486.638 16.7002 486.69 17.22C486.683 17.7559 486.524 18.2788 486.232 18.7283C485.94 19.1778 485.527 19.5354 485.04 19.76C484.306 20.1148 483.469 20.1963 482.68 19.99C477.05 18.73 471.38 16.92 465.89 15.14C463.5 14.38 460.99 13.56 458.72 12.86H458.21L458.01 13.44C458.028 13.7911 458.127 14.1331 458.301 14.4388C458.475 14.7444 458.717 15.0051 459.01 15.2L476.9 21.12C479.401 22.0911 482.082 22.5107 484.76 22.35C485.698 22.1089 486.609 21.7739 487.48 21.35C489.12 20.54 490.03 19.5 490.21 18.35C490.39 17.2 489.7 15.75 488.21 14.35C479.01 8.91998 469.39 6.46998 457.73 4.38998ZM447.53 25.6L445.06 25.2L444.71 25.27C444.563 25.3428 444.44 25.4577 444.359 25.6002C444.277 25.7426 444.239 25.9061 444.25 26.07C444.287 26.2457 444.376 26.406 444.507 26.5294C444.637 26.6527 444.803 26.7332 444.98 26.76L447.47 27.15L448.04 27.08C448.33 26.93 448.32 26.56 448.32 26.41C448.277 26.2146 448.18 26.0352 448.041 25.892C447.901 25.7488 447.724 25.6477 447.53 25.6V25.6ZM417.35 24.36C416.87 23.83 416.35 23.62 416.05 23.76L415.67 24.26C415.628 24.5064 415.637 24.759 415.697 25.0016C415.758 25.2443 415.867 25.4719 416.02 25.67L417.02 27.28H419.26L417.35 24.36ZM366.68 2.57998L367.31 2.77998C367.9 2.86998 368.62 2.69998 368.53 2.52998C367.881 1.58802 367.084 0.757282 366.17 0.069978H363.5C364.48 0.889978 365.53 1.71998 366.68 2.57998ZM409.74 22.9C409.519 23.4287 409.352 23.9781 409.24 24.54C409.18 24.7552 409.193 24.9844 409.278 25.191C409.364 25.3977 409.516 25.5698 409.71 25.68C409.95 25.8453 410.23 25.9419 410.521 25.9596C410.812 25.9772 411.102 25.9151 411.36 25.78L411.62 25.65H411.68L414.14 20.59C414.218 20.357 414.243 20.1097 414.213 19.8659C414.184 19.6221 414.101 19.3878 413.97 19.18C413.806 18.8583 413.538 18.6012 413.21 18.45C410.51 18.21 407.78 16.53 404.32 14.05C401.493 12.2031 398.215 11.1656 394.84 11.05L395.38 12C400.27 13.28 404.48 14.83 409.07 19.61C409.418 19.9899 409.676 20.4434 409.825 20.9368C409.974 21.4302 410.01 21.9508 409.93 22.46L409.74 22.9ZM360.01 13.35L360.34 13.44C360.532 13.4705 360.73 13.4442 360.907 13.3643C361.085 13.2843 361.235 13.1542 361.34 12.99C361.44 12.8395 361.489 12.6604 361.478 12.4799C361.467 12.2994 361.398 12.1274 361.28 11.99L357.94 9.44998L357.37 9.69998L357.25 10.41L360.01 13.35ZM384.41 0.069978H381.56C381.62 0.17895 381.694 0.279768 381.78 0.369978C387.39 8.06998 393.2 16.45 398.28 27.28H401.28C400.399 24.7528 399.344 22.2901 398.12 19.91C394.269 12.8274 389.673 6.1764 384.41 0.069978V0.069978ZM354.66 6.06998C354.395 5.85546 354.102 5.67722 353.79 5.53998L353.63 5.45998L353.17 5.20998C351.533 4.09865 350.012 2.82558 348.63 1.40998L348.51 1.64998C348.07 2.64998 348.08 3.22998 348.51 3.70998L350.74 5.99998C351.075 6.49608 351.255 7.08118 351.255 7.67998C351.255 8.27878 351.075 8.86388 350.74 9.35998C350.552 9.64595 350.29 9.87529 349.982 10.0233C349.673 10.1713 349.331 10.2324 348.99 10.2C348.646 10.1305 348.32 9.9919 348.031 9.79249C347.742 9.59309 347.497 9.33707 347.31 9.03998C347.17 8.75998 347.02 8.61998 346.88 8.59998C346.74 8.57998 346.65 8.59998 346.24 8.85998C344.71 9.77998 344.86 10.56 345.16 11.1C346.58 13.01 347.85 14.01 349.04 14.19C349.574 14.2291 350.109 14.1417 350.602 13.9349C351.096 13.7281 351.534 13.4078 351.88 13C353.149 11.2296 354.087 9.2443 354.65 7.13998C354.727 6.97051 354.767 6.78696 354.769 6.60103C354.77 6.4151 354.733 6.23084 354.66 6.05998V6.06998ZM350.49 19.89C350.32 19.8711 350.148 19.8961 349.99 19.9626C349.833 20.0291 349.695 20.135 349.59 20.27C349.505 20.4207 349.471 20.5953 349.494 20.767C349.518 20.9386 349.597 21.0978 349.72 21.22L351.45 22.91L351.95 23.16C352.28 23.21 352.51 22.91 352.61 22.79C352.699 22.6194 352.737 22.4268 352.719 22.2352C352.701 22.0437 352.629 21.8613 352.51 21.71L350.82 20L350.49 19.89ZM452.15 22.68C449.91 21.655 447.474 21.1262 445.01 21.13C444.913 21.1936 444.838 21.2847 444.793 21.3917C444.749 21.4986 444.737 21.6164 444.76 21.73C444.796 22.0271 444.907 22.3102 445.082 22.5531C445.257 22.7961 445.49 22.991 445.76 23.12L449.76 24.44C450.215 24.691 450.591 25.0631 450.847 25.515C451.103 25.9669 451.229 26.4809 451.21 27C451.21 27.09 451.21 27.17 451.21 27.26H454.66C454.73 25.3 454.43 23.81 452.15 22.67V22.68ZM322.28 19.32C323.716 14.6388 324.474 9.77608 324.53 4.87998C324.53 4.00998 324.31 3.43998 323.92 3.40998L323.36 3.64998C323.057 3.93349 322.877 4.32506 322.86 4.73998C322.64 9.49998 322.17 14.8 320.46 18.04C319.752 19.1924 318.704 20.0972 317.46 20.63V23.45C318.53 23.1856 319.523 22.6744 320.36 21.9572C321.197 21.24 321.855 20.3369 322.28 19.32V19.32ZM322.28 0.859978C322.371 1.12897 322.537 1.36626 322.758 1.54356C322.98 1.72086 323.248 1.8307 323.53 1.85998H323.83H323.91L327.51 0.039978H322.35C322.286 0.166045 322.249 0.304328 322.242 0.445684C322.235 0.58704 322.258 0.72825 322.31 0.859978H322.28ZM413.33 15.64C413.6 15.97 416.01 16.02 417.65 15.19C417.84 15.1258 418.016 15.0236 418.165 14.8895C418.315 14.7554 418.436 14.5922 418.52 14.41C419.13 13.21 418.64 11.73 416.88 9.80998C414.81 7.20998 412.36 6.59998 409.46 7.89998C409.386 7.92959 409.319 7.97365 409.262 8.02959C409.205 8.08552 409.16 8.15221 409.129 8.22576C409.099 8.2993 409.083 8.37823 409.083 8.45794C409.083 8.53764 409.099 8.61653 409.13 8.68998C409.235 8.81542 409.364 8.9176 409.511 8.98993C409.657 9.06227 409.817 9.10316 409.98 9.10998C412.62 7.92998 414.42 8.86998 416.19 12C416.69 13.66 415.97 13.89 415.41 14.17C414.875 14.4177 414.289 14.5376 413.7 14.52C413.532 14.5447 413.376 14.6217 413.253 14.7402C413.131 14.8586 413.05 15.0125 413.02 15.18C413.01 15.28 413.1 15.45 413.36 15.64H413.33ZM504.83 14.94L504.19 15.13C503.999 15.2943 503.843 15.4964 503.733 15.7234C503.623 15.9505 503.561 16.1978 503.55 16.45L503.2 18.93C503.01 20.18 502.83 21.43 502.65 22.68C502.47 23.93 502.28 25.09 502.1 26.27C502.092 26.6058 502.055 26.9404 501.99 27.27H504.19L505.47 16.12C505.47 15.45 505.2 15 504.86 14.94H504.83ZM501.43 8.38998C501.309 8.20721 501.176 8.03342 501.03 7.86998C496.364 4.85781 491.449 2.24839 486.34 0.069978H477.75C483.955 2.2954 490.008 4.92434 495.87 7.93998C496.87 8.55998 497.3 9.17998 497.27 9.77998C497.259 9.9699 497.193 10.1526 497.082 10.3067C496.97 10.4608 496.817 10.5799 496.64 10.65C496.114 10.8121 495.56 10.8638 495.012 10.8019C494.465 10.7399 493.937 10.5657 493.46 10.29C484.638 5.92304 475.38 2.49748 465.84 0.069978H457.01C457.235 0.33702 457.511 0.55777 457.82 0.719978C465.31 2.19998 474.54 5.71998 482.68 8.86998L482.97 8.95998C488.77 11.2 493.79 13.11 496.69 13.71C497.976 13.8232 499.27 13.5956 500.44 13.05C500.912 12.8619 501.332 12.5643 501.666 12.1817C501.999 11.7992 502.237 11.3427 502.36 10.85C502.462 10.1805 502.304 9.49743 501.92 8.93998C501.783 8.74393 501.629 8.55993 501.46 8.38998H501.43ZM334.4 25.31C333.89 25.53 333.85 25.66 334.16 26.31C334.237 26.5649 334.384 26.7933 334.584 26.9698C334.783 27.1464 335.028 27.2641 335.29 27.31C335.766 27.3408 336.244 27.2692 336.69 27.1L339.38 24.81L339.72 24.24C339.72 24.19 339.66 24.09 339.34 24.04C337.98 23.73 337.24 22.39 336.55 21.17C336.086 20.159 335.37 19.2844 334.47 18.63L333.94 18.45C333.831 18.4189 333.716 18.4184 333.606 18.4483C333.497 18.4783 333.398 18.5377 333.32 18.62C333.18 18.73 333.23 18.9 333.32 19.19C333.59 19.8009 333.926 20.3809 334.32 20.92C335.24 22.27 336.38 24 334.4 25.31ZM425.64 0.309978C424.489 0.774955 423.249 0.976546 422.01 0.899978L421.82 1.38998C421.832 1.50812 421.878 1.62026 421.952 1.71263C422.027 1.805 422.127 1.87358 422.24 1.90998L424.82 2.35998C428.09 1.82998 429.82 3.19998 430.39 4.54998C430.512 4.78303 430.586 5.03779 430.609 5.29967C430.633 5.56156 430.604 5.82544 430.525 6.07621C430.446 6.32699 430.318 6.55973 430.149 6.76114C429.98 6.96255 429.773 7.12866 429.54 7.24998C428.697 7.57923 427.768 7.61793 426.9 7.35998C427.082 7.80092 427.387 8.17961 427.78 8.44998C430.63 10.1 433.4 10.1 434.89 9.33998C435.176 9.23169 435.429 9.05149 435.626 8.81678C435.822 8.58206 435.954 8.30075 436.01 7.99998C436.1 7.16998 435.53 6.26998 434.35 5.33998C432.26 3.99215 430.486 2.208 429.15 0.109978H426.01C425.88 0.139978 425.77 0.209978 425.64 0.269978V0.309978ZM328.5 3.38998C328.308 3.55423 328.151 3.75601 328.039 3.98297C327.927 4.20994 327.863 4.45732 327.85 4.70998L327.51 7.17998C327.31 8.43998 327.13 9.68998 326.96 10.94C326.79 12.19 326.59 13.35 326.4 14.53C326.431 15.2498 326.284 15.9662 325.974 16.6164C325.664 17.2666 325.199 17.831 324.62 18.26L324.55 18.34C324.132 18.6808 323.771 19.0858 323.48 19.54C322.83 21.14 322.98 21.54 323.04 21.67H323.17C323.393 21.693 323.619 21.6657 323.83 21.59C326.75 19.72 328.26 17.8 328.49 15.53L329.77 4.35998C329.77 3.67998 329.48 3.21998 329.14 3.16998L328.5 3.38998ZM446.85 2.38998C447.38 2.12998 447.85 1.59998 447.66 1.51998C445.57 0.439978 434.18 0.519978 434.18 0.519978C434.415 0.834329 434.724 1.08523 435.08 1.24998C438.736 2.05666 442.466 2.48558 446.21 2.52998L446.85 2.38998ZM423.36 27.24C424.101 26.0894 424.584 24.7919 424.776 23.4367C424.968 22.0815 424.863 20.7009 424.47 19.39C424.281 18.8138 423.977 18.2819 423.576 17.8265C423.176 17.371 422.687 17.0014 422.14 16.74C421.01 16.31 419.51 16.48 417.57 17.27L417.06 17.46C416.26 17.87 415.95 18.46 416.06 18.93C416.111 19.0844 416.203 19.2219 416.326 19.3277C416.45 19.4335 416.6 19.5034 416.76 19.53L419.42 18.85C420.109 18.7079 420.827 18.8407 421.42 19.22C422.216 20.1782 422.61 21.4075 422.52 22.65C421.96 25.48 421.16 25.99 422.25 27.11L422.38 27.28H423.38L423.36 27.24ZM420.79 21.7C419.96 20.44 419.31 20.79 419.04 20.91C418.693 21.1114 418.374 21.3568 418.09 21.64C417.954 21.7778 417.86 21.9523 417.821 22.1423C417.782 22.3323 417.799 22.5295 417.87 22.71C418.027 22.8869 418.228 23.0196 418.453 23.0951C418.677 23.1705 418.918 23.186 419.15 23.14C419.473 23.0465 419.787 22.9261 420.09 22.78C421.01 22.3 420.93 22 420.79 21.7V21.7ZM437.19 18.39C436.515 18.6533 435.765 18.6533 435.09 18.39C434.79 18.24 434.58 18.21 434.45 18.28C434.32 18.35 434.26 18.39 434.12 18.84C433.5 20.41 434.12 20.95 434.74 21.22C437.12 21.96 438.8 22.06 439.86 21.54C440.294 21.2755 440.651 20.9016 440.895 20.4559C441.139 20.0101 441.261 19.508 441.25 19C441.084 16.8454 440.521 14.74 439.59 12.79C439.479 12.4415 439.239 12.1483 438.92 11.97C438.586 11.9508 438.251 11.9676 437.92 12.02H437.73L437.2 12.07C435.145 12.0951 433.093 11.9243 431.07 11.56L431.13 11.81C431.41 12.81 431.83 13.31 432.52 13.44L435.81 14.08C436.388 14.274 436.901 14.626 437.29 15.096C437.678 15.5661 437.928 16.1355 438.01 16.74C438.056 17.0656 438.002 17.3975 437.856 17.692C437.709 17.9864 437.477 18.2298 437.19 18.39V18.39ZM418.36 6.38998L419.14 7.21998C425.31 13.97 429.27 18.3 426.2 27.31H430.2C430.574 25.9027 430.812 24.4628 430.91 23.01C432.11 15.32 422.21 5.47998 416.13 0.099978H411.35C413.936 1.88991 416.29 3.99251 418.36 6.35998V6.38998ZM333.77 3.80998C333.94 2.35998 333.19 2.26998 332.9 2.21998C332.486 2.18398 332.069 2.20416 331.66 2.27998C331.46 2.31075 331.272 2.39474 331.115 2.52316C330.959 2.65158 330.839 2.81972 330.77 3.00998C330.71 3.34998 331.02 3.75998 331.52 4.00998C331.847 4.1104 332.182 4.18726 332.52 4.23998C333.57 4.42998 333.72 4.08998 333.77 3.80998ZM335.88 2.16998C335.863 3.41766 335.365 4.61065 334.49 5.49998C332.18 7.49998 331.21 7.41998 331.33 8.91998C331.27 9.58998 331.56 9.63998 331.71 9.65998H332.17C335.25 8.30998 337.26 6.39998 338.23 4.00998C338.464 3.46864 338.576 2.88219 338.557 2.29266C338.538 1.70313 338.389 1.1251 338.12 0.599978C337.987 0.409282 337.837 0.231797 337.67 0.069978H332.59L334.59 0.779978C334.888 0.912391 335.156 1.10385 335.378 1.34276C335.599 1.58168 335.77 1.86309 335.88 2.16998V2.16998ZM341.46 22.67C341.877 22.7113 342.297 22.6203 342.66 22.41C343.481 21.7287 344.343 21.0976 345.24 20.52C346.661 19.7899 347.873 18.7091 348.76 17.38C348.97 16.75 348.94 16.51 348.89 16.43C348.84 16.35 348.72 16.28 348.12 16.18C345.84 15.71 344.5 14.18 343.12 12.58L342.65 12.33C342.46 12.3118 342.268 12.3428 342.093 12.4198C341.918 12.4968 341.765 12.6174 341.65 12.77C341.548 12.871 341.478 12.9995 341.448 13.1397C341.418 13.28 341.429 13.426 341.48 13.56L343.68 16.56C343.819 16.8734 343.865 17.2204 343.812 17.5593C343.759 17.8981 343.609 18.2144 343.38 18.47C343.158 18.7402 342.874 18.9518 342.551 19.0861C342.229 19.2204 341.878 19.2732 341.53 19.24C341.185 19.2022 340.864 19.0468 340.62 18.8L338.28 16.45L337.76 16.25C337.602 16.231 337.441 16.2565 337.296 16.3236C337.151 16.3907 337.028 16.4968 336.94 16.63C336.856 16.748 336.806 16.8869 336.795 17.0316C336.784 17.1762 336.814 17.321 336.88 17.45C337.795 19.0579 338.911 20.5431 340.2 21.87C340.518 22.2705 340.962 22.5522 341.46 22.67V22.67ZM331.61 16.27H331.76C334.97 15.46 337.98 13.53 340.97 10.39C343.57 8.03998 344.78 4.22998 345.22 0.049978H342.01C341.38 5.04998 338.95 8.98998 331.39 13.05C331.044 13.3156 330.785 13.6776 330.644 14.0904C330.503 14.5033 330.488 14.9485 330.6 15.37C330.653 15.6068 330.779 15.821 330.96 15.9825C331.141 16.1439 331.369 16.2445 331.61 16.27V16.27ZM355.55 0.069978H350.01C350.845 0.947238 351.938 1.53568 353.13 1.74998C353.458 1.83738 353.802 1.84009 354.131 1.75788C354.46 1.67567 354.762 1.51122 355.01 1.27998C355.322 0.94972 355.513 0.522953 355.55 0.069978V0.069978ZM541.55 23.49L535.22 16.43L534.9 16.22L534.6 16.33C534.426 16.58 534.32 16.8713 534.294 17.1749C534.267 17.4785 534.321 17.7837 534.45 18.06C536.219 19.9677 537.778 22.0597 539.1 24.3C539.35 24.7678 539.466 25.2958 539.434 25.8254C539.402 26.355 539.224 26.8654 538.92 27.3H542.76C542.923 26.6175 542.9 25.9036 542.692 25.2332C542.485 24.5628 542.101 23.9607 541.58 23.49H541.55ZM596.13 9.32998C595.664 9.57654 595.161 9.74543 594.64 9.82998L594.42 9.96998C594.549 10.1213 594.705 10.2468 594.88 10.34C596.581 10.7707 598.377 10.6301 599.99 9.93998C600.353 9.80914 600.672 9.57991 600.913 9.27793C601.153 8.97594 601.304 8.6131 601.35 8.22998C601.35 7.13998 600.11 5.80998 597.96 4.53998L597.58 4.26998L597.49 4.18998L597.42 4.06998C597.32 3.87998 597.15 3.43998 594.42 2.89998H594.27C594.39 3.34998 594.09 3.89998 593.42 4.33998C592.945 4.67932 592.443 4.98027 591.92 5.23998C591.36 5.51998 590.66 5.81998 589.83 6.14998L589.61 6.44998C589.812 6.65035 590.065 6.79307 590.341 6.86339C590.617 6.9337 590.906 6.92908 591.18 6.84998C594.97 5.08998 596.96 5.58998 597.57 6.62998C598.18 7.66998 597.48 8.66998 596.13 9.32998ZM605.77 19.33C604.924 19.6493 603.998 19.6844 603.13 19.43C603.309 19.8668 603.611 20.2421 604 20.51C606.85 22.17 609.62 22.17 611.12 21.41C611.414 21.3006 611.673 21.1152 611.872 20.8727C612.07 20.6303 612.201 20.3394 612.25 20.03C612.35 19.2 611.77 18.3 610.59 17.37C608.128 15.7688 606.104 13.5795 604.7 11C604.43 10.51 604.23 10.41 604 10.36C603.749 10.5844 603.537 10.8478 603.37 11.14C602.956 11.6372 602.446 12.0454 601.87 12.34C600.722 12.8186 599.482 13.0339 598.24 12.97L598.04 13.46C598.054 13.5789 598.102 13.6913 598.178 13.7836C598.254 13.8759 598.356 13.9441 598.47 13.98L601.04 14.43C604.31 13.89 606.09 15.27 606.62 16.61C606.86 17.0895 606.906 17.6433 606.748 18.1557C606.589 18.6682 606.239 19.0996 605.77 19.36V19.33ZM585.71 3.32998L585.38 3.62998C587.423 3.98641 589.524 3.7683 591.45 2.99998C592.22 2.57998 592.39 2.26998 592.45 2.10998C592.421 1.86164 592.299 1.6333 592.11 1.46998C591.01 0.909978 590.01 0.459978 589.01 0.069978H585.16L585.81 0.299978C586.81 0.699978 587.22 1.14998 587.24 1.70998C587.26 2.26998 586.74 2.83998 585.71 3.34998V3.32998ZM581.63 1.19998C580.894 1.28917 580.182 1.51648 579.53 1.86998C578.93 2.17998 578.3 2.55998 577.86 2.86998C577.66 3.03998 577.63 3.14998 577.66 3.19998C577.69 3.24998 577.96 3.50998 578.66 3.49998C579.555 3.4013 580.426 3.1546 581.24 2.76998C581.67 2.56895 582.057 2.28717 582.38 1.93998C582.63 1.56998 582.57 1.45998 582.56 1.43998C582.55 1.41998 582.42 1.22998 581.63 1.19998ZM570.08 3.07998C570.96 2.53998 571.88 2.00998 572.84 1.53998C574.015 0.944947 575.24 0.453099 576.5 0.069978H572.34C571.547 0.396645 570.787 0.746645 570.06 1.11998C569.23 1.52998 568.34 2.01998 567.47 2.52998C567.15 2.73998 566.99 2.95998 567.03 3.02998C567.26 3.40998 568.82 3.63998 570.08 3.07998ZM615.82 24.87C615.767 24.6951 615.679 24.5325 615.562 24.3917C615.446 24.2509 615.302 24.1348 615.14 24.05C614.806 24.0263 614.47 24.0431 614.14 24.1H613.96L613.43 24.15C611.375 24.1751 609.323 24.0043 607.3 23.64L607.36 23.89C607.63 24.89 608.06 25.39 608.75 25.52L612.03 26.16C612.645 26.375 613.191 26.7515 613.61 27.25H616.77C616.5 26.439 616.182 25.6443 615.82 24.87V24.87ZM573.13 23.62C572.512 23.5173 571.887 23.4638 571.26 23.46L571.78 24.36C572.997 24.3436 574.202 24.5959 575.31 25.0989C576.418 25.6019 577.401 26.3432 578.19 27.27H579.31C577.55 24.93 575.48 23.7 573.13 23.62V23.62ZM632.06 25.1C631.914 25.0802 631.766 25.0895 631.623 25.1273C631.481 25.165 631.347 25.2305 631.23 25.32C631.1 25.4099 630.994 25.5293 630.919 25.6683C630.844 25.8074 630.803 25.9622 630.8 26.12L630.59 27.28H632.91C632.97 26.94 633.03 26.6 633.1 26.28C633.109 25.988 633.006 25.7035 632.813 25.4844C632.62 25.2652 632.351 25.1278 632.06 25.1V25.1ZM594.78 26.51C595.39 25.31 594.9 23.83 593.14 21.91C591.06 19.31 588.62 18.7 585.71 20C585.636 20.0294 585.569 20.0736 585.512 20.1297C585.456 20.1858 585.411 20.2528 585.381 20.3267C585.351 20.4005 585.337 20.4796 585.338 20.5592C585.34 20.6388 585.357 20.7173 585.39 20.79C585.493 20.9166 585.622 21.0189 585.769 21.0898C585.916 21.1607 586.077 21.1983 586.24 21.2C588.88 20.03 590.68 20.97 592.44 24.09C592.94 25.76 592.22 25.99 591.66 26.27C591.125 26.5188 590.54 26.6387 589.95 26.62C589.781 26.6405 589.624 26.7164 589.503 26.8358C589.381 26.9552 589.303 27.1114 589.28 27.28H593.93C594.301 27.1414 594.606 26.8659 594.78 26.51V26.51ZM557.46 7.59998H557.23C556.988 8.14483 556.887 8.74166 556.936 9.3357C556.985 9.92975 557.182 10.502 557.51 11C561.304 16.2599 564.832 21.7067 568.08 27.32H571.67C567.753 20.5058 563.178 14.0918 558.01 8.16998C557.78 7.80998 557.6 7.63998 557.46 7.59998ZM358.13 21.92C356.999 19.8376 355.388 18.0549 353.43 16.72C353.31 16.7208 353.191 16.7536 353.088 16.8151C352.984 16.8766 352.899 16.9646 352.84 17.07C352.67 17.314 352.572 17.6005 352.556 17.8972C352.541 18.1939 352.608 18.4892 352.75 18.75L355.08 22C355.268 22.478 355.315 23.0002 355.214 23.504C355.113 24.0077 354.868 24.4716 354.51 24.84C354.214 25.2317 353.825 25.5431 353.378 25.7457C352.93 25.9483 352.44 26.0357 351.95 26C351.488 25.9455 351.056 25.7419 350.72 25.42L348.02 22.82L347.6 22.51C347.32 22.51 346.98 22.72 346.77 23.12C346.631 23.3174 346.556 23.5532 346.556 23.795C346.556 24.0367 346.631 24.2725 346.77 24.47L349.64 27.25H356.78C358.34 25.62 359.27 24.22 358.13 21.92ZM589.88 24.53C589.982 24.4794 590.069 24.4029 590.132 24.3081C590.195 24.2133 590.233 24.1036 590.24 23.99C589.76 22.99 589.24 22.65 588.93 22.59C588.79 22.59 588.55 22.59 587.83 22.94C587.46 23.36 587.26 23.68 587.3 23.88C587.34 24.08 587.66 24.39 588.09 24.57C588.677 24.7348 589.301 24.7209 589.88 24.53V24.53ZM572.69 20.29C571.787 20.1498 570.874 20.0763 569.96 20.07L570.59 21.31C574.24 21.39 577.25 22.46 579.59 25.31C579.969 26.022 580.421 26.6924 580.94 27.31H582.46C580.07 22.76 576.8 20.42 572.69 20.29ZM634.86 6.63998C634.7 6.66404 634.548 6.72667 634.417 6.82248C634.287 6.91829 634.181 7.04441 634.11 7.18998C633.88 7.65998 634.11 7.18998 633.46 8.62998C629.38 22.25 632.01 22.84 632.01 22.84C632.511 23.2613 633.136 23.5071 633.79 23.54C634.165 23.5618 634.542 23.5349 634.91 23.46V20.63C634.757 20.6707 634.598 20.6876 634.44 20.68C633.94 20.68 633.11 20.31 633.11 18.45C633.38 15.1869 633.983 11.9601 634.91 8.81998L634.86 6.63998ZM518.23 2.34998C518.478 2.56847 518.676 2.83789 518.811 3.13989C518.946 3.44189 519.013 3.76936 519.01 4.09998C518.965 4.27448 518.884 4.43761 518.772 4.57884C518.66 4.72008 518.52 4.83629 518.36 4.91998C517.317 5.32613 516.191 5.47035 515.08 5.33998C510.592 5.04545 506.192 3.96222 502.08 2.13998C500.65 1.41998 499.25 0.739978 497.87 0.069978H491.17C496.8 2.58998 500.55 3.38998 505.17 6.12998C505.34 6.29171 505.494 6.46917 505.63 6.65998C513.17 9.65998 520.19 9.32998 527.09 5.50998C527.74 5.14998 528.43 4.71998 529.09 4.28998C530.09 3.42998 530.01 3.07998 530 3.06998C529.99 3.05998 529.64 2.77998 528.9 2.68998C526.028 2.34835 523.247 1.45895 520.71 0.069978H514.77L518.23 2.34998ZM510.91 3.23998C511.576 3.40532 512.278 3.34916 512.91 3.07998C513.003 3.0423 513.084 2.98087 513.145 2.90188C513.207 2.82288 513.246 2.72911 513.26 2.62998C513.26 2.11998 512.55 1.38998 511.38 0.679978L510.28 0.069978H504.41L510.91 3.23998ZM622.72 24.36C622.845 24.2805 622.939 24.1613 622.988 24.0217C623.037 23.8821 623.038 23.73 622.99 23.59C622.946 23.4458 622.861 23.3174 622.745 23.2199C622.63 23.1224 622.49 23.06 622.34 23.04L618.9 23.2L618.74 23.64L619.12 24.13L622.49 24.47L622.72 24.36ZM374.21 23.16C372.94 21.16 371.62 19.05 370.38 17.16L369.97 16.88L369.41 17.2C369.178 17.4599 369.014 17.7729 368.932 18.1112C368.85 18.4495 368.853 18.8029 368.94 19.14L373.94 27.27H376.8C375.95 25.91 375.08 24.53 374.21 23.16ZM317.82 7.45998C317.846 7.30266 317.822 7.14122 317.752 6.99792C317.682 6.85463 317.57 6.73655 317.43 6.65998V8.74998C317.56 8.29998 317.69 7.85998 317.82 7.45998ZM563.6 0.069978H560.19C560.05 0.229978 559.91 0.399978 559.77 0.589978C559.45 1.04959 559.194 1.55092 559.01 2.07998C559.01 2.07998 557.32 6.68998 562.8 8.66998C564.94 9.43998 566.8 9.17998 569.02 8.97998C570.17 8.87998 571.02 8.81998 571.86 8.78998C573.45 8.78998 575.07 8.78998 576.67 8.91998C582.88 9.15998 587.6 10.74 594.67 18.46L595.44 19.29C597.86 21.7118 600.003 24.3949 601.83 27.29H605.43C601.59 19.92 592.86 12.51 589.36 9.55998C585.962 6.89048 581.658 5.64944 577.36 6.09998L564.83 6.54998C564.151 6.46095 563.503 6.21131 562.939 5.82176C562.376 5.4322 561.913 4.91396 561.59 4.30998C561.05 3.11998 561.72 2.49998 562.66 1.19998C562.932 0.790407 563.247 0.411521 563.6 0.069978V0.069978ZM552.6 3.52998C552.839 3.84488 552.969 4.22949 552.969 4.62498C552.969 5.02047 552.839 5.40507 552.6 5.71998C552.363 6.00612 552.047 6.21642 551.691 6.32484C551.336 6.43327 550.957 6.43505 550.6 6.32998C550.01 6.16545 549.466 5.86782 549.01 5.45998C547.345 3.52968 545.537 1.72789 543.6 0.069978H541.11C544.267 2.81172 547.24 5.75808 550.01 8.88998C550.542 9.50447 551.234 9.9582 552.01 10.2C552.387 10.2564 552.772 10.2244 553.135 10.1064C553.498 9.98835 553.828 9.7876 554.1 9.51998C556.1 6.82998 555.4 3.73998 552 0.129978L552.01 0.069978H549.4C550.532 1.15476 551.594 2.31043 552.58 3.52998H552.6ZM598.85 0.879978H598.61C599.504 1.34564 600.484 1.62141 601.49 1.68998C608.91 1.21998 621.43 0.969978 627.59 2.25998C627.961 2.33612 628.299 2.52821 628.554 2.80858C628.809 3.08894 628.969 3.44308 629.01 3.81998C629.004 4.1503 628.898 4.47101 628.705 4.73912C628.512 5.00722 628.242 5.2099 627.93 5.31998C627.356 5.55119 626.738 5.6536 626.12 5.61998C619.174 4.54996 612.133 4.24147 605.12 4.69998L605.01 4.99998C605.141 5.28103 605.361 5.5114 605.635 5.65586C605.91 5.80032 606.224 5.85094 606.53 5.79998C614.086 5.70256 621.637 6.25122 629.1 7.43998C629.886 7.58517 630.697 7.51962 631.45 7.24998C631.761 7.09751 632.028 6.86915 632.228 6.586C632.427 6.30285 632.551 5.97405 632.59 5.62998C632.34 2.62998 629.84 0.849978 624.99 0.169978C623.83 0.169978 622.46 0.079978 620.99 0.049978H608.87C605.515 0.0875501 602.166 0.364923 598.85 0.879978V0.879978ZM627.27 9.93998C621.61 8.43998 614.98 7.93998 606.43 8.23998L606.3 8.57998C606.402 8.87815 606.589 9.14008 606.838 9.33368C607.086 9.52729 607.386 9.64416 607.7 9.66998C609.23 9.81998 611.38 9.86998 613.86 9.91998C618.66 10.02 623.6 10.12 625.14 11.11C625.713 11.3833 626.201 11.8063 626.553 12.3345C626.905 12.8626 627.108 13.4761 627.14 14.11C627.144 14.4893 627.039 14.8618 626.839 15.184C626.639 15.5063 626.352 15.765 626.01 15.93C625.508 16.1673 624.955 16.2805 624.4 16.26L613.59 16H613.35L613.28 16.08C613.589 16.554 613.989 16.9611 614.458 17.2772C614.927 17.5933 615.455 17.8119 616.01 17.92C618.687 18.3778 621.395 18.6252 624.11 18.66H624.84C626.19 18.7698 627.548 18.617 628.84 18.21C629.266 17.9846 629.615 17.6362 629.84 17.21C630.65 14.47 629.12 10.91 627.27 9.93998V9.93998ZM628.41 26.47C628.679 25.3647 628.644 24.2073 628.31 23.12C628.061 22.3208 627.556 21.6256 626.873 21.1414C626.19 20.6572 625.367 20.4108 624.53 20.44L616.89 20L616.6 20.06L616.52 20.28C616.603 20.5097 616.736 20.7183 616.909 20.8911C617.082 21.0638 617.29 21.1966 617.52 21.28C619.64 21.3676 621.747 21.6623 623.81 22.16C624.26 22.2841 624.67 22.5211 625.003 22.8483C625.335 23.1756 625.579 23.5823 625.71 24.03C625.793 24.2899 625.79 24.5693 625.704 24.828C625.618 25.0868 625.452 25.3115 625.23 25.47C624.857 25.6906 624.419 25.7754 623.99 25.71L619.68 25.79C619.615 25.8719 619.572 25.9695 619.556 26.073C619.541 26.1765 619.552 26.2823 619.59 26.38C619.701 26.7607 619.956 27.0833 620.3 27.28H627.79C628.071 27.0762 628.287 26.7947 628.41 26.47V26.47ZM565.19 12.88L565.72 13.81C567.72 13.22 570.24 12.69 571.51 13.66C572.071 13.7496 572.645 13.6475 573.14 13.37C573.89 12.99 574.14 12.54 574.14 12.45L573.83 12.34C571.74 11.43 567.82 11.78 565.19 12.88ZM623.07 14.45C623.6 14.18 624.07 13.66 623.88 13.58C621.79 12.5 610.4 12.58 610.4 12.58C610.638 12.8947 610.951 13.1455 611.31 13.31C614.965 14.1307 618.695 14.5731 622.44 14.63L623.07 14.45ZM573.41 27.17L573.59 27.28H575.21C574.483 26.9066 573.723 26.6019 572.94 26.37L573.41 27.17ZM379.2 3.58998L378.91 3.29998L378.6 3.52998C378.261 3.96594 378.031 4.47625 377.928 5.01876C377.826 5.56128 377.854 6.12041 378.01 6.64998C382.52 12.15 386.86 20.14 390.71 27.28H394.49C390.01 18.52 384.37 10.58 379.2 3.58998ZM413.01 26.9L412.73 27.28H414.01C413.64 26.91 413.27 26.77 413.01 26.9ZM399.51 19.13L401.37 22.36C402.986 23.6331 404.207 25.3394 404.89 27.28H407.89C407.819 27.114 407.735 26.9536 407.64 26.8C405.458 23.7359 402.696 21.13 399.51 19.13V19.13ZM500.36 15.75L499.73 15.95C499.391 16.2186 499.172 16.6104 499.12 17.04C498.801 20.5121 498.131 23.943 497.12 27.28H499.12C500.026 24.0077 500.639 20.6611 500.95 17.28C501.01 16.41 500.78 15.81 500.36 15.75ZM507.93 21.75H508.39C511.47 20.4 513.49 18.49 514.45 16.09C514.683 15.55 514.794 14.9654 514.775 14.3777C514.755 13.79 514.607 13.2138 514.34 12.69C513.73 11.69 512.42 11.04 510.34 10.59L509.8 10.46C509.477 10.3809 509.137 10.3975 508.823 10.5075C508.509 10.6176 508.233 10.8164 508.03 11.08C507.966 11.2226 507.947 11.3813 507.976 11.5349C508.005 11.6885 508.079 11.8298 508.19 11.94L510.75 12.86C511.055 12.9879 511.331 13.1774 511.56 13.4165C511.789 13.6557 511.966 13.9394 512.08 14.25C512.07 15.4999 511.575 16.6972 510.7 17.59C508.38 19.54 507.41 19.51 507.54 21.01C507.5 21.69 507.78 21.74 507.93 21.76V21.75ZM517.2 22.5C520.42 19.58 521.51 14.83 521.63 9.49998L518.41 10.23C518.26 15.71 516.77 19.52 510.41 23.53L509.84 23.17L510.29 23.6C509.49 24.1 508.62 24.6 507.65 25.11C507.327 25.3606 507.079 25.6964 506.936 26.0797C506.793 26.4631 506.76 26.8787 506.84 27.28H510.97C513.311 26.0684 515.42 24.4537 517.2 22.51V22.5ZM359.12 5.26998L358.79 5.08998L358.51 5.21998C358.363 5.47722 358.285 5.76852 358.285 6.06498C358.285 6.36143 358.363 6.65274 358.51 6.90998C360.375 8.61512 362.052 10.5161 363.51 12.58C363.805 13.0451 363.958 13.5865 363.949 14.1375C363.94 14.6884 363.77 15.2246 363.46 15.68C363.266 15.9812 362.993 16.2223 362.669 16.376C362.346 16.5298 361.986 16.59 361.63 16.55C361.097 16.4614 360.61 16.1933 360.25 15.79L356.19 12.5C356.055 12.5154 355.926 12.5624 355.814 12.6371C355.701 12.7118 355.607 12.8122 355.54 12.93C355.369 13.1728 355.277 13.4628 355.277 13.76C355.277 14.0572 355.369 14.3471 355.54 14.59L360.44 19.26C360.908 19.6892 361.486 19.98 362.11 20.1C362.613 20.1662 363.124 20.0828 363.58 19.86C364.865 19.1436 365.946 18.111 366.72 16.86C367.264 16.028 367.473 15.0206 367.304 14.0409C367.135 13.0611 366.601 12.1817 365.81 11.58L359.12 5.26998ZM507.01 15.11C506.95 15.45 507.25 15.85 507.75 16.16C508.077 16.2604 508.412 16.3373 508.75 16.39C509.82 16.53 509.97 16.19 510.03 15.91C510.19 14.46 509.45 14.36 509.15 14.32C508.738 14.2685 508.322 14.2685 507.91 14.32C507.702 14.3573 507.509 14.4507 507.35 14.5899C507.192 14.7291 507.074 14.9089 507.01 15.11ZM366.23 21.68C366.067 21.6599 365.901 21.6804 365.747 21.7397C365.594 21.799 365.457 21.8953 365.35 22.02C365.241 22.2474 365.2 22.5014 365.232 22.7515C365.264 23.0016 365.368 23.2372 365.53 23.43C366.73 24.68 367.84 25.96 368.88 27.28H371.29C370.03 25.66 368.607 23.92 367.02 22.06C366.795 21.866 366.522 21.735 366.23 21.68V21.68ZM361.44 23.68C361.296 24.0145 361.229 24.3776 361.247 24.7416C361.264 25.1055 361.364 25.4607 361.54 25.78L362.74 27.26H365.22C364.041 25.9905 362.778 24.8012 361.44 23.7V23.68ZM370.61 9.35998C373.13 7.59998 374.32 3.78998 373.51 1.92998C373.03 1.30998 372.53 0.689978 372.01 0.069978H370.01C370.443 0.537983 370.782 1.08447 371.01 1.67998C371.262 2.2631 371.352 2.90314 371.271 3.53301C371.19 4.16287 370.941 4.75937 370.55 5.25998C370.301 5.57904 369.971 5.82659 369.596 5.9776C369.22 6.12861 368.811 6.17772 368.41 6.11998C367.898 6.0174 367.419 5.7946 367.01 5.46998L360.01 0.069978H358.43C358.558 0.797878 358.86 1.48407 359.31 2.06998C361.119 3.98622 363.089 5.74274 365.2 7.31998L365.79 7.72998C366.779 8.5961 367.942 9.24054 369.2 9.61998C369.685 9.67051 370.175 9.58025 370.61 9.35998V9.35998ZM375.49 10.02L375.21 10.08C375.021 10.3307 374.893 10.6225 374.837 10.9317C374.782 11.241 374.8 11.559 374.89 11.86C378.633 16.7908 382.079 21.9399 385.21 27.28H388.01C384.85 21.36 380.64 15.96 375.58 10.14L375.49 10.02ZM379.74 27.28H382.34C379.375 22.1757 375.997 17.3228 372.24 12.77L372.01 13C371.838 13.1577 371.703 13.3516 371.615 13.5678C371.527 13.7839 371.487 14.0169 371.5 14.25C374.01 18.69 376.81 23.06 379.74 27.28ZM543.35 14.28L543.98 14.54C544.6 14.68 545.36 14.54 545.28 14.38C544.47 12.23 535.54 5.08998 535.54 5.08998C535.483 5.47566 535.532 5.86945 535.68 6.22998C537.934 9.17696 540.507 11.8665 543.35 14.25V14.28ZM554.59 13.88L554.28 14.11C553.93 14.5383 553.688 15.044 553.573 15.5849C553.458 16.1259 553.474 16.6865 553.62 17.22C556.07 20.417 558.283 23.7894 560.24 27.31H563.78C560.87 22.63 557.78 18.24 554.88 14.17L554.59 13.88ZM551.06 20.55L550.79 20.61C550.595 20.8561 550.461 21.1445 550.399 21.452C550.336 21.7595 550.347 22.0774 550.43 22.38C551.6 24.02 552.76 25.65 553.89 27.31H556.51C554.87 25.13 553.09 22.93 551.19 20.67L551.06 20.55ZM525.26 22.37C524.57 22.2117 523.968 21.7924 523.58 21.2C523.44 20.91 523.3 20.78 523.15 20.76C523 20.74 522.93 20.76 522.52 21.02C520.99 21.94 521.14 22.71 521.44 23.26C522.85 25.17 524.13 26.18 525.31 26.35C525.842 26.3715 526.372 26.2678 526.856 26.0473C527.341 25.8267 527.767 25.4953 528.1 25.08C529.373 23.3103 530.314 21.325 530.88 19.22C531.008 18.8989 531.008 18.541 530.88 18.22C530.618 18.0088 530.329 17.8339 530.02 17.7L529.86 17.62L529.4 17.37C527.76 16.2583 526.236 14.9853 524.85 13.57L524.73 13.81C524.29 14.75 524.31 15.39 524.73 15.87L527.01 18.13C527.343 18.625 527.521 19.2082 527.521 19.805C527.521 20.4017 527.343 20.9849 527.01 21.48C526.825 21.7696 526.564 22.003 526.255 22.1546C525.947 22.3062 525.602 22.3703 525.26 22.34V22.37ZM579.67 15.14C579.45 15.37 579.45 15.51 579.45 15.53C579.45 15.55 579.61 15.94 580.67 16.38C581.042 16.5317 581.453 16.5563 581.84 16.45C582.13 16.33 582.05 15.95 581.93 15.73C581.64 15.09 580.84 14.68 579.67 15.11V15.14ZM533.6 20.67L532.98 20.89L532.8 21.62L535.41 24.85L535.75 24.97C535.947 25.0216 536.155 25.0119 536.346 24.9422C536.537 24.8725 536.703 24.7461 536.82 24.58C536.924 24.4341 536.98 24.2593 536.98 24.08C536.98 23.9007 536.924 23.7259 536.82 23.58L533.6 20.67ZM583.4 17.38L583.62 17.87C584.137 17.9489 584.666 17.8723 585.14 17.65C585.413 17.528 585.652 17.3414 585.837 17.1061C586.022 16.8709 586.146 16.5942 586.2 16.3C586.224 15.9165 586.153 15.533 585.992 15.1839C585.832 14.8348 585.587 14.5311 585.28 14.3C581.95 11.83 579.36 12.3 576.5 13.71L576.12 13.9C575.79 14.19 575.76 14.44 575.8 14.51C575.84 14.58 576.36 14.95 577.35 14.51C578.94 13.71 580.83 12.75 583.66 14.77C584.42 15.33 584.51 15.83 584.49 16.17C584.41 16.68 584.24 16.94 583.4 17.35V17.38ZM567.29 15.71L568.29 17.41C573.42 17.29 577.72 18.61 581.23 22.41C582.9 25.12 584.53 26.62 586.03 26.85H586.37L586.08 26.21C582.29 19.21 577.3 15.74 571.15 15.82C569.869 15.673 568.578 15.6262 567.29 15.68V15.71ZM531.54 23.71C531.398 23.7134 531.258 23.7506 531.133 23.8184C531.008 23.8861 530.901 23.9827 530.82 24.1C530.617 24.3333 530.49 24.623 530.456 24.9303C530.422 25.2376 530.483 25.548 530.63 25.82L532.01 27.28H535.38L531.54 23.71ZM540.23 5.41998C543.83 8.62998 547.55 11.95 547.97 13.73C548.178 14.3557 548.213 15.0257 548.072 15.6697C547.931 16.3138 547.62 16.908 547.17 17.39C546.882 17.6964 546.52 17.9236 546.119 18.0497C545.718 18.1758 545.291 18.1965 544.88 18.11C544.328 17.976 543.819 17.7042 543.4 17.32L535.33 9.99998L535.15 9.83998H535.03C534.903 10.3914 534.894 10.9636 535.004 11.5187C535.115 12.0737 535.342 12.5991 535.67 13.06C537.374 15.2028 539.265 17.1905 541.32 19L541.89 19.47C542.85 20.4374 544.001 21.1935 545.27 21.69C545.79 21.8056 546.332 21.7674 546.83 21.58C549.6 19.96 551.17 16.13 550.51 14.15C547.51 9.53998 543.16 5.04998 536.96 0.149978H535.28C535.296 0.543761 535.444 0.920776 535.7 1.21998C536.76 2.24998 538.36 3.68998 540.23 5.34998V5.41998ZM528.01 10.07C527.149 9.87537 526.382 9.38757 525.84 8.68998C525.698 9.12875 525.698 9.60121 525.84 10.04C527.02 12.93 529.23 14.46 530.92 14.68C531.239 14.7568 531.571 14.7541 531.889 14.6721C532.206 14.5902 532.498 14.4315 532.74 14.21C533.36 13.6 533.5 12.56 533.17 11.21C532.496 9.18205 532.224 7.04203 532.37 4.90998C531.857 5.55215 531.203 6.06861 530.46 6.41998C530.689 7.06702 530.689 7.77294 530.46 8.41998C530.3 8.93273 529.971 9.37567 529.525 9.67567C529.08 9.97566 528.545 10.1148 528.01 10.07V10.07ZM547.54 23.42C547.366 23.5748 547.228 23.7662 547.136 23.9806C547.044 24.195 547.001 24.427 547.01 24.66C547.49 25.54 548.01 26.41 548.48 27.28H550.85C549.857 25.9466 548.833 24.5966 547.78 23.23L547.54 23.42ZM519.34 24.68L518.87 24.43C518.681 24.4117 518.49 24.4415 518.315 24.5166C518.14 24.5918 517.987 24.7099 517.87 24.86C517.766 24.9615 517.693 25.0911 517.661 25.2332C517.629 25.3753 517.639 25.5236 517.69 25.66L518.86 27.28H522.01C521.012 26.5313 520.115 25.6574 519.34 24.68V24.68Z" fill="#971864"/>
<path d="M635.01 27H0V33H635.01V27Z" fill="#2E2E2E"/>
</g>
<defs>
<clipPath id="clip0_8_2">
<rect width="635.01" height="33" fill="white"/>
</clipPath>
</defs>
</svg>
